<?xml version="1.0" encoding="UTF-8"?>
<svg version="1.1" xmlns="http://www.w3.org/2000/svg" width="512" height="512">
    <path
        d="M0 0 C5.91765804 3.7908042 10.19167599 9.47539965 14.515625 14.91015625 C17.27239455 18.33878002 20.12365919 21.67183757 23 25 C27.32251112 30.01522558 31.55481425 35.09178042 35.73046875 40.23046875 C40.08505794 45.54441666 44.55078435 50.76526766 49 56 C54.96246463 63.01514804 60.88077939 70.05647291 66.6953125 77.1953125 C71.06756951 82.51612696 75.54007144 87.75266336 80 93 C85.96246463 100.01514804 91.88077939 107.05647291 97.6953125 114.1953125 C102.06756951 119.51612696 106.54007144 124.75266336 111 130 C116.96246463 137.01514804 122.88077939 144.05647291 128.6953125 151.1953125 C133.06756951 156.51612696 137.54007144 161.75266336 142 167 C147.96246463 174.01514804 153.88077939 181.05647291 159.6953125 188.1953125 C164.06756951 193.51612696 168.54007144 198.75266336 173 204 C178.96246463 211.01514804 184.88077939 218.05647291 190.6953125 225.1953125 C195.06756951 230.51612696 199.54007144 235.75266336 204 241 C209.96246463 248.01514804 215.88077939 255.05647291 221.6953125 262.1953125 C224.22867079 265.27828072 226.79510341 268.33097585 229.375 271.375 C229.83358398 271.91608398 230.29216797 272.45716797 230.76464844 273.01464844 C233.13857603 275.81266917 235.51717012 278.60666208 237.8984375 281.3984375 C239.76722481 283.59017412 241.62450979 285.79083749 243.47265625 288 C245.0366812 289.85652421 246.62372754 291.69423588 248.24609375 293.5 C251.42803335 297.18772075 253.42911246 299.8466144 253.6875 304.8125 C253.4265236 307.8643261 253.05522979 308.9211003 251.25 311.5 C246.7421824 314.50521173 242.00320636 314.13775724 236.74316406 314.11352539 C235.91352646 314.11367142 235.08388885 314.11381744 234.22911072 314.1139679 C231.4912554 314.11327212 228.75346841 314.10549539 226.015625 314.09765625 C224.11562131 314.09579088 222.21561714 314.09436754 220.31561279 314.09336853 C215.31791859 314.08955273 210.32025351 314.07973041 205.3225708 314.06866455 C200.22156162 314.05843031 195.12054774 314.05386659 190.01953125 314.04882812 C180.01300805 314.03810732 170.00650645 314.02104212 160 314 C160.00460896 314.72445564 160.00921793 315.44891129 160.01396656 316.19532013 C160.12448812 333.83982129 160.20717706 351.48423429 160.25906086 369.12900543 C160.28481977 377.6619766 160.31992579 386.19471641 160.37719727 394.72753906 C160.4271034 402.16656512 160.45930784 409.60542359 160.47044247 417.04461241 C160.47694913 420.98206554 160.49219252 424.91903932 160.52865028 428.8563385 C160.56272429 432.56644776 160.57303037 436.27588269 160.56553841 439.98613358 C160.56755827 441.98855464 160.59439362 443.99090316 160.62210083 445.99313354 C160.58654713 452.23042397 160.26705125 457.03506974 156.85504436 462.34957123 C150.17728514 468.2907585 143.33545492 468.575592 134.70263672 468.50793457 C132.86325185 468.51729451 132.86325185 468.51729451 130.98670769 468.52684355 C127.59943954 468.54000004 124.21306366 468.53531721 120.82585049 468.52289867 C117.16660492 468.51382704 113.50743582 468.52782834 109.84820557 468.53881836 C102.6863452 468.55658571 95.52465271 468.5527716 88.36278582 468.5411678 C82.54113928 468.53212671 76.71953973 468.53091239 70.89788818 468.53526306 C70.06867351 468.53587599 69.23945884 468.53648893 68.38511646 468.53712043 C66.70047457 468.53839936 65.01583269 468.53969621 63.33119082 468.5410108 C47.54190343 468.55241137 31.75270899 468.53931111 15.96343684 468.51780933 C2.42154156 468.49993881 -11.12021656 468.50304307 -24.66210938 468.52148438 C-40.39568527 468.54290034 -56.12917974 468.55131278 -71.86276817 468.53903532 C-73.5411415 468.53776115 -75.21951483 468.53650367 -76.89788818 468.53526306 C-77.72363567 468.53464596 -78.54938315 468.53402886 -79.40015328 468.53339306 C-85.2134237 468.52994233 -91.02664238 468.53576251 -96.83990479 468.54518127 C-103.92634631 468.55641071 -111.01261065 468.55334143 -118.09903193 468.5320583 C-121.71325333 468.52156048 -125.32717954 468.5174041 -128.94139862 468.53065491 C-132.86197751 468.54481132 -136.78207517 468.52788485 -140.70263672 468.50793457 C-142.41042392 468.5213189 -142.41042392 468.5213189 -144.15271187 468.53497362 C-151.6058099 468.46135412 -157.18651723 467.39284698 -162.85504436 462.34957123 C-166.97930371 455.92567374 -166.67062002 449.49931777 -166.56762695 442.05664062 C-166.56621458 440.65646414 -166.56701216 439.25628396 -166.56983948 437.85610962 C-166.57126769 434.07538329 -166.54197594 430.29545829 -166.50696969 426.51491737 C-166.47560591 422.5564956 -166.47276759 418.59805323 -166.46684265 414.63952637 C-166.45133349 407.1526811 -166.4103451 399.66620309 -166.3600952 392.17951918 C-166.30411018 383.65234114 -166.27669229 375.12514509 -166.25161803 366.59782887 C-166.19942629 349.0650072 -166.11154151 331.5325425 -166 314 C-167.58067513 314.00666183 -167.58067513 314.00666183 -169.19328308 314.01345825 C-179.12510983 314.05400497 -189.05691979 314.08398473 -198.98881054 314.10362434 C-204.09487038 314.11406068 -209.20086339 314.12821724 -214.30688477 314.15087891 C-219.23464426 314.1726125 -224.16233948 314.18456976 -229.0901432 314.18975449 C-230.97000452 314.1934493 -232.84986233 314.20066432 -234.72969627 314.21146011 C-237.3630877 314.22598182 -239.99621364 314.22797765 -242.62963867 314.22705078 C-243.40647507 314.23424133 -244.18331146 314.24143188 -244.98368835 314.24884033 C-249.96744281 314.22986453 -253.78821162 313.73994019 -257.7578125 310.6171875 C-259.64124758 308.16516824 -259.89411843 305.7448396 -259.80078125 302.71875 C-258.1332985 297.0574427 -253.39854019 292.83339692 -249.453125 288.59033203 C-247.38672273 286.32881584 -245.47747887 283.95270341 -243.5625 281.5625 C-239.60556582 276.69950576 -235.53564058 271.94299797 -231.44384766 267.19384766 C-227.64598499 262.77691282 -223.94319959 258.29046003 -220.26953125 253.76953125 C-215.45311061 247.89200589 -210.505057 242.12388086 -205.58398438 236.33398438 C-200.84596338 230.75714362 -196.12157211 225.17417216 -191.5 219.5 C-185.95807902 212.69586214 -180.26691077 206.02024122 -174.58398438 199.33398438 C-169.84596338 193.75714362 -165.12157211 188.17417216 -160.5 182.5 C-154.95807902 175.69586214 -149.26691077 169.02024122 -143.58398438 162.33398438 C-138.84596338 156.75714362 -134.12157211 151.17417216 -129.5 145.5 C-123.95807902 138.69586214 -118.26691077 132.02024122 -112.58398438 125.33398438 C-107.84596338 119.75714362 -103.12157211 114.17417216 -98.5 108.5 C-92.95807902 101.69586214 -87.26691077 95.02024122 -81.58398438 88.33398438 C-76.84596338 82.75714362 -72.12157211 77.17417216 -67.5 71.5 C-61.95807902 64.69586214 -56.26691077 58.02024122 -50.58398438 51.33398438 C-45.84596338 45.75714362 -41.12157211 40.17417216 -36.5 34.5 C-32.34508913 29.39877491 -28.11021863 24.3705541 -23.84765625 19.359375 C-21.88281198 17.04811378 -19.93455041 14.72405712 -17.99609375 12.390625 C-17.5047998 11.80200684 -17.01350586 11.21338867 -16.50732422 10.60693359 C-15.56930895 9.48251989 -14.63453897 8.35538796 -13.70361328 7.22509766 C-6.59495432 -1.26826045 -6.59495432 -1.26826045 0 0 Z "
        fill="#2cbad1"
        transform="translate(259,22)"
    />
    <path
        d="M0 0 C2.90003897 2.10436041 5.46243366 4.47531471 8 7 C7.50230299 11.30300539 4.75357519 13.95142534 2 17.0625 C0.98747636 18.23107391 -0.02423157 19.40035506 -1.03515625 20.5703125 C-1.53934082 21.15071289 -2.04352539 21.73111328 -2.56298828 22.32910156 C-4.56832108 24.6608205 -6.5038608 27.04617372 -8.4375 29.4375 C-12.39508188 34.30129025 -16.46542446 39.05881231 -20.55834961 43.80834961 C-23.58945289 47.33298919 -26.56985316 50.89039882 -29.5 54.5 C-32.93208013 58.7279248 -36.44551171 62.8752789 -40 67 C-44.31934272 72.01314773 -48.55097277 77.08537515 -52.72265625 82.22265625 C-55.74419944 85.90759143 -58.83035951 89.53568321 -61.91650391 93.16650391 C-64.79557843 96.55973475 -67.63211492 99.9827672 -70.4375 103.4375 C-74.39508188 108.30129025 -78.46542446 113.05881231 -82.55834961 117.80834961 C-85.58945289 121.33298919 -88.56985316 124.89039882 -91.5 128.5 C-94.93208013 132.7279248 -98.44551171 136.8752789 -102 141 C-106.31934272 146.01314773 -110.55097277 151.08537515 -114.72265625 156.22265625 C-117.74419944 159.90759143 -120.83035951 163.53568321 -123.91650391 167.16650391 C-126.79557843 170.55973475 -129.63211492 173.9827672 -132.4375 177.4375 C-136.39508188 182.30129025 -140.46542446 187.05881231 -144.55834961 191.80834961 C-147.58945289 195.33298919 -150.56985316 198.89039882 -153.5 202.5 C-156.93208013 206.7279248 -160.44551171 210.8752789 -164 215 C-168.31934272 220.01314773 -172.55097277 225.08537515 -176.72265625 230.22265625 C-179.28204136 233.34396467 -181.88597667 236.42446635 -184.5 239.5 C-188.63224667 244.36382008 -192.70237193 249.27259505 -196.7265625 254.2265625 C-198.37348831 256.2356988 -200.03213601 258.22883807 -201.7109375 260.2109375 C-202.16525146 260.74904053 -202.61956543 261.28714355 -203.08764648 261.84155273 C-204.36674407 263.35384446 -205.65004778 264.86257572 -206.93359375 266.37109375 C-211.42948449 272.09081864 -211.80216182 276.83131338 -211 284 C-209.48779591 288.94409242 -206.53921961 291.7307853 -202.02511597 294.18826294 C-198.4211184 295.63287078 -194.90126054 295.50360568 -191.06640625 295.43359375 C-189.34830639 295.44319866 -187.63020744 295.45296938 -185.91210938 295.46289062 C-183.23516347 295.45430202 -180.55845871 295.43746651 -177.8815918 295.4152832 C-175.27606175 295.40067902 -172.67188931 295.41606903 -170.06640625 295.43359375 C-168.88166466 295.40887245 -168.88166466 295.40887245 -167.67298889 295.38365173 C-161.84181106 295.43546909 -157.26460373 296.88626593 -153 301 C-148.47805514 307.07188151 -148.43987708 312.22146518 -148.51757812 319.63574219 C-148.51366562 320.78952362 -148.50975311 321.94330505 -148.50572205 323.13204956 C-148.49975682 325.63049525 -148.50289933 328.12897576 -148.5141449 330.62740326 C-148.53143003 334.58812607 -148.52445436 338.54839924 -148.5098877 342.50909424 C-148.48092867 351.63579225 -148.49155125 360.76236231 -148.50258636 369.88908386 C-148.51228896 378.2480655 -148.5133901 386.60682077 -148.48270559 394.96576428 C-148.46729173 399.52321009 -148.48248152 404.07998694 -148.50305176 408.63739014 C-148.49734054 411.04048971 -148.49052163 413.44358698 -148.48242188 415.84667969 C-148.49373642 416.91822296 -148.50505096 417.98976624 -148.51670837 419.09378052 C-148.45072145 427.32739628 -146.99618786 435.09554077 -141.88671875 441.75390625 C-141.16097656 442.35074219 -140.43523437 442.94757813 -139.6875 443.5625 C-138.96949219 444.18253906 -138.25148438 444.80257813 -137.51171875 445.44140625 C-130.83604347 449.58385483 -123.84353315 449.29187094 -116.22462463 449.2784729 C-115.04258058 449.2842653 -113.86053653 449.2900577 -112.64267296 449.29602563 C-109.37480186 449.31005764 -106.10705606 449.31525353 -102.83915961 449.31667423 C-99.31025424 449.32037706 -95.78139562 449.33553693 -92.2525177 449.34928894 C-86.14283808 449.3715379 -80.03317515 449.38656538 -73.92346382 449.39665604 C-65.08990716 449.41125582 -56.25640863 449.43679629 -47.42288613 449.46498732 C-33.0902891 449.5104317 -18.75768369 449.54705624 -4.42504883 449.578125 C9.49586457 449.60832018 23.41675749 449.64267491 37.33764648 449.68261719 C38.19606215 449.68507874 39.05447781 449.68754028 39.93890607 449.69007643 C44.24542434 449.70245122 48.55194238 449.71490771 52.85846031 449.72740483 C88.57227874 449.83093739 124.28612106 449.92015226 160 450 C160.11853448 456.68238147 160.11853448 456.68238147 158 460.125 C157.62875 460.76695312 157.2575 461.40890625 156.875 462.0703125 C152.46180168 466.6122291 147.52060869 468.22615166 141.35275269 468.50336456 C139.13615497 468.52525946 136.91927449 468.52530688 134.70263672 468.50793457 C132.86325185 468.51729451 132.86325185 468.51729451 130.98670769 468.52684355 C127.59943954 468.54000004 124.21306366 468.53531721 120.82585049 468.52289867 C117.16660492 468.51382704 113.50743582 468.52782834 109.84820557 468.53881836 C102.6863452 468.55658571 95.52465271 468.5527716 88.36278582 468.5411678 C82.54113928 468.53212671 76.71953973 468.53091239 70.89788818 468.53526306 C70.06867351 468.53587599 69.23945884 468.53648893 68.38511646 468.53712043 C66.70047457 468.53839936 65.01583269 468.53969621 63.33119082 468.5410108 C47.54190343 468.55241137 31.75270899 468.53931111 15.96343684 468.51780933 C2.42154156 468.49993881 -11.12021656 468.50304307 -24.66210938 468.52148438 C-40.39568527 468.54290034 -56.12917974 468.55131278 -71.86276817 468.53903532 C-73.5411415 468.53776115 -75.21951483 468.53650367 -76.89788818 468.53526306 C-77.72363567 468.53464596 -78.54938315 468.53402886 -79.40015328 468.53339306 C-85.2134237 468.52994233 -91.02664238 468.53576251 -96.83990479 468.54518127 C-103.92634631 468.55641071 -111.01261065 468.55334143 -118.09903193 468.5320583 C-121.71325333 468.52156048 -125.32717954 468.5174041 -128.94139862 468.53065491 C-132.86197751 468.54481132 -136.78207517 468.52788485 -140.70263672 468.50793457 C-142.41042392 468.5213189 -142.41042392 468.5213189 -144.15271187 468.53497362 C-151.6058099 468.46135412 -157.18651723 467.39284698 -162.85504436 462.34957123 C-166.97930371 455.92567374 -166.67062002 449.49931777 -166.56762695 442.05664062 C-166.56621458 440.65646414 -166.56701216 439.25628396 -166.56983948 437.85610962 C-166.57126769 434.07538329 -166.54197594 430.29545829 -166.50696969 426.51491737 C-166.47560591 422.5564956 -166.47276759 418.59805323 -166.46684265 414.63952637 C-166.45133349 407.1526811 -166.4103451 399.66620309 -166.3600952 392.17951918 C-166.30411018 383.65234114 -166.27669229 375.12514509 -166.25161803 366.59782887 C-166.19942629 349.0650072 -166.11154151 331.5325425 -166 314 C-167.58067513 314.00666183 -167.58067513 314.00666183 -169.19328308 314.01345825 C-179.12510983 314.05400497 -189.05691979 314.08398473 -198.98881054 314.10362434 C-204.09487038 314.11406068 -209.20086339 314.12821724 -214.30688477 314.15087891 C-219.23464426 314.1726125 -224.16233948 314.18456976 -229.0901432 314.18975449 C-230.97000452 314.1934493 -232.84986233 314.20066432 -234.72969627 314.21146011 C-237.3630877 314.22598182 -239.99621364 314.22797765 -242.62963867 314.22705078 C-243.40647507 314.23424133 -244.18331146 314.24143188 -244.98368835 314.24884033 C-249.96744281 314.22986453 -253.78821162 313.73994019 -257.7578125 310.6171875 C-259.64124758 308.16516824 -259.89411843 305.7448396 -259.80078125 302.71875 C-258.1332985 297.0574427 -253.39854019 292.83339692 -249.453125 288.59033203 C-247.38672273 286.32881584 -245.47747887 283.95270341 -243.5625 281.5625 C-239.60556582 276.69950576 -235.53564058 271.94299797 -231.44384766 267.19384766 C-227.64598499 262.77691282 -223.94319959 258.29046003 -220.26953125 253.76953125 C-215.45311061 247.89200589 -210.505057 242.12388086 -205.58398438 236.33398438 C-200.84596338 230.75714362 -196.12157211 225.17417216 -191.5 219.5 C-185.95807902 212.69586214 -180.26691077 206.02024122 -174.58398438 199.33398438 C-169.84596338 193.75714362 -165.12157211 188.17417216 -160.5 182.5 C-154.95807902 175.69586214 -149.26691077 169.02024122 -143.58398438 162.33398438 C-138.84596338 156.75714362 -134.12157211 151.17417216 -129.5 145.5 C-123.95807902 138.69586214 -118.26691077 132.02024122 -112.58398438 125.33398438 C-107.84596338 119.75714362 -103.12157211 114.17417216 -98.5 108.5 C-92.95807902 101.69586214 -87.26691077 95.02024122 -81.58398438 88.33398438 C-76.84596338 82.75714362 -72.12157211 77.17417216 -67.5 71.5 C-61.95807902 64.69586214 -56.26691077 58.02024122 -50.58398438 51.33398438 C-45.84596338 45.75714362 -41.12157211 40.17417216 -36.5 34.5 C-32.34508913 29.39877491 -28.11021863 24.3705541 -23.84765625 19.359375 C-21.88281198 17.04811378 -19.93455041 14.72405712 -17.99609375 12.390625 C-17.5047998 11.80200684 -17.01350586 11.21338867 -16.50732422 10.60693359 C-15.56930895 9.48251989 -14.63453897 8.35538796 -13.70361328 7.22509766 C-6.59495432 -1.26826045 -6.59495432 -1.26826045 0 0 Z "
        fill="#299bad"
        transform="translate(259,22)"
    />
    <path
        d="M0 0 C4.764375 -0.0825 9.52875 -0.165 14.4375 -0.25 C16.66391235 -0.30462402 16.66391235 -0.30462402 18.93530273 -0.36035156 C29.51382698 -0.44873759 36.71731971 1.27870584 44.5625 8.48828125 C50.08773597 14.29878755 50.30391089 20.37024294 50.2109375 28.03125 C49.71616279 34.99474586 46.08504748 40.42572738 41 45 C35.15238803 48.6658325 30.05908071 50.12683156 23.14453125 50.09765625 C21.93385986 50.09515869 20.72318848 50.09266113 19.47583008 50.09008789 C17.93693115 50.08098389 16.39803223 50.07187988 14.8125 50.0625 C9.924375 50.041875 5.03625 50.02125 0 50 C0 33.5 0 17 0 0 Z "
        fill="#2cbad1"
        transform="translate(290,336)"
    />
</svg>
