<?xml version="1.0" encoding="UTF-8"?>
<svg version="1.1" xmlns="http://www.w3.org/2000/svg" width="512" height="512">
    <!-- Первая -->
    <path
        d="M0 0 C2.66304666 1.91718349 4.85465645 3.9248256 6.98046875 6.42578125 C7.66109375 7.12703125 8.34171875 7.82828125 9.04296875 8.55078125 C15.30427419 17.84175061 17.23045084 30.38187336 20.0390625 41.10546875 C20.53635243 42.98844026 21.03412326 44.87128481 21.53233337 46.75401306 C22.60368597 50.8063332 23.67193245 54.85945435 24.73773193 58.91323853 C26.44128088 65.39232893 28.15184462 71.86955392 29.86376953 78.34643555 C30.45631313 80.58854297 31.04884229 82.83065422 31.64135742 85.07276917 C32.08765503 86.76158298 32.08765503 86.76158298 32.54296875 88.48451424 C33.46219505 91.96401996 34.38072995 95.44370753 35.29907227 98.92344666 C41.66265286 123.03302108 48.07309172 147.13007955 54.48855591 171.22589111 C56.01014713 176.94085044 57.53115482 182.65596476 59.05170727 188.37120056 C59.63607823 190.56738187 60.22061644 192.76351867 60.80532551 194.95960999 C62.22174802 200.27998939 63.63582752 205.60096647 65.04450989 210.92340088 C67.52289128 220.27638327 70.02169398 229.6216343 72.62000847 238.94212437 C73.7632198 243.04694677 74.89302555 247.15540911 76.0221138 251.26413536 C76.55198712 253.1766919 77.08862586 255.08739019 77.63282394 256.99592018 C85.54655533 284.7585078 85.54655533 284.7585078 79.3125 296.43359375 C72.79537342 306.18061591 65.87931988 310.54017142 54.765625 313.60546875 C53.72447037 313.90057343 52.68331573 314.1956781 51.61061096 314.49972534 C37.39715928 318.4908257 23.10409575 322.19591783 8.81982422 325.92348862 C2.17160243 327.65980481 -4.47433238 329.40487441 -11.12061691 331.14858818 C-12.85168802 331.60271211 -14.58279017 332.05671774 -16.31392288 332.51060677 C-37.22912017 337.99467103 -58.1251263 343.55061393 -79.01953125 349.11328125 C-80.32914259 349.46192104 -80.32914259 349.46192104 -81.66521072 349.81760406 C-83.40494261 350.28075071 -85.14467251 350.74390477 -86.88440037 351.20706654 C-89.37132894 351.86913283 -91.85827888 352.5311188 -94.3452301 353.19309998 C-97.38444635 354.0020966 -100.42352827 354.81159493 -103.46250916 355.62147522 C-104.81484775 355.98162613 -106.16718833 356.34176961 -107.51953125 356.7019043 C-109.2675 357.16768135 -109.2675 357.16768135 -111.05078125 357.64286804 C-112.03046875 357.9012294 -113.01015625 358.15959076 -114.01953125 358.42578125 C-114.75341064 358.62214676 -115.48729004 358.81851227 -116.2434082 359.02082825 C-125.12529458 361.04588308 -134.28328204 359.6325774 -142.13671875 355.2421875 C-154.34626992 347.11016568 -156.58441375 332.45297317 -160 319.19140625 C-160.56634542 317.04067125 -161.13411108 314.8903098 -161.70318604 312.74029541 C-163.23605998 306.93374158 -164.74985863 301.12236748 -166.26038742 295.30996704 C-167.85285764 289.19644002 -169.46338759 283.08767669 -171.07250977 276.97851562 C-173.74068094 266.84130209 -176.39955092 256.7016926 -179.05273438 246.56054688 C-182.82171137 232.15942253 -186.62494515 217.76751125 -190.44140625 203.37890625 C-190.88590622 201.70296103 -190.88590622 201.70296103 -191.33938599 199.99315834 C-192.51647244 195.5552895 -193.6936133 191.11743511 -194.8710022 186.67964649 C-196.86667016 179.15624616 -198.85767054 171.63162254 -200.84570312 164.10620117 C-201.11875778 163.07264968 -201.39181244 162.03909819 -201.67314148 160.97422695 C-202.21528573 158.9220822 -202.75742548 156.86993626 -203.29956055 154.81778908 C-206.93475743 141.0580139 -210.57931694 127.30103296 -214.27082634 113.55624771 C-215.45209715 109.15487714 -216.62810587 104.7520967 -217.8052063 100.34960938 C-218.66976746 97.12717275 -219.54343029 93.90730656 -220.41772461 90.6875 C-220.91438761 88.83085961 -221.41060039 86.97409869 -221.90625 85.1171875 C-222.12661926 84.31837662 -222.34698853 83.51956573 -222.57403564 82.69654846 C-224.98528484 73.56638227 -224.39521636 65.25821497 -219.61328125 56.99609375 C-211.04535861 44.99291911 -198.07506454 42.39470456 -184.58203125 38.92578125 C-182.53012126 38.38561784 -180.4786231 37.84388813 -178.42749023 37.30078125 C-173.71545898 36.05573101 -169.00104753 34.82019018 -164.28515625 33.58984375 C-154.88708782 31.13614392 -145.50033628 28.63996985 -136.11328125 26.14453125 C-132.55960998 25.19988322 -129.00590828 24.25534992 -125.45214844 23.31103516 C-124.55941601 23.07381556 -123.66668358 22.83659595 -122.74689865 22.59218788 C-116.3983078 20.90607571 -110.04777697 19.22740911 -103.69628906 17.55224609 C-100.13210054 16.61188435 -96.56796905 15.67130687 -93.00390625 14.73046875 C-92.13395271 14.50082806 -91.26399918 14.27118736 -90.36768341 14.03458786 C-79.34407834 11.12269613 -68.33749205 8.15797109 -57.34765625 5.12109375 C-54.02189575 4.20950088 -50.69579613 3.29915614 -47.36959839 2.38916016 C-44.45182017 1.5838434 -41.54064152 0.75738543 -38.62915039 -0.0703125 C-26.02504139 -3.56717851 -11.99054822 -7.13005799 0 0 Z "
        fill="#4f87ba"
        transform="translate(251.01953125,3.57421875)"
    />
    <!-- Третья -->
    <path
        d="M0 0 C3.2239517 1.41539343 5.35666792 3.11414928 7.8125 5.625 C8.43769531 6.25664062 9.06289063 6.88828125 9.70703125 7.5390625 C10.93793708 8.8601369 12.16117192 10.18985717 13.32972717 11.56639099 C18.36637771 17.49740419 23.86091257 22.93543382 29.402668 28.38613701 C31.13885241 30.09530337 32.87030874 31.80913014 34.60043335 33.52442932 C39.514164 38.39577793 44.43063117 43.2642558 49.36328125 48.11645508 C52.39513186 51.09952899 55.41690887 54.09249804 58.43253708 57.09196663 C59.57463705 58.2242398 60.72036479 59.35286699 61.86992264 60.47756767 C70.57680565 69.00019489 78.87820841 77.75428223 79.03125 90.62890625 C77.93407688 110.35059306 60.29285171 122.87145948 47.27807617 135.93066406 C45.48326863 137.73502429 43.68863107 139.5395536 41.89414978 141.34423828 C36.53667736 146.7302165 31.17490906 152.1119007 25.81165716 157.49212325 C24.29442965 159.01415947 22.77728868 160.53628191 21.2601645 162.05842113 C11.81341997 171.53611819 2.36452021 181.0116633 -7.0892992 190.48230362 C-9.27058159 192.66753454 -11.45183663 194.85279275 -13.63305664 197.03808594 C-14.17509252 197.58113018 -14.7171284 198.12417442 -15.27558961 198.68367454 C-24.06460418 207.48971297 -32.84148767 216.30774231 -41.6135811 225.13063338 C-50.64278861 234.21169255 -59.68336026 243.28131544 -68.73490733 252.34010863 C-73.80771415 257.41756453 -78.87542229 262.49988828 -83.93027687 267.59522247 C-88.68306386 272.38602839 -93.45100923 277.16121356 -98.22948265 281.92642212 C-99.97612239 283.6731157 -101.71767099 285.42491814 -103.45358276 287.18227386 C-123.33638035 307.29740781 -123.33638035 307.29740781 -135.3203125 308.76171875 C-136.57585937 308.73722656 -137.83140625 308.71273438 -139.125 308.6875 C-140.38570312 308.69136719 -141.64640625 308.69523437 -142.9453125 308.69921875 C-152.28798166 307.64428833 -158.9670961 301.72716149 -165.125 295.125 C-166.43750515 293.75011836 -167.75260375 292.37770773 -169.0703125 291.0078125 C-169.63508301 290.40598145 -170.19985352 289.80415039 -170.78173828 289.18408203 C-172.64106441 287.35340499 -174.53207353 285.67389799 -176.5138855 283.9811554 C-181.56066408 279.57674398 -186.27077833 274.86168747 -190.99609375 270.11743164 C-191.9724157 269.14082697 -192.94895918 268.16444372 -193.92570496 267.18826294 C-196.55342329 264.56082929 -199.17806605 261.9303433 -201.80213165 259.29926229 C-204.55361766 256.54148767 -207.30797176 253.78658051 -210.06201172 251.03135681 C-215.2663631 245.82390826 -220.46816203 240.61391787 -225.66902924 235.4029898 C-231.59456004 229.46624752 -237.52296047 223.53237434 -243.4515934 217.59873021 C-255.63757202 205.40232378 -267.81997543 193.20235244 -280 181 C-276.21201407 179.90390108 -273.99849982 180.2889452 -270.16748047 181.3449707 C-268.38155739 181.82954742 -268.38155739 181.82954742 -266.55955505 182.32391357 C-265.24538608 182.69103655 -263.93126511 183.0583314 -262.6171875 183.42578125 C-261.23449251 183.80475065 -259.85155677 184.18284261 -258.46839905 184.56011963 C-254.71759047 185.58572898 -250.97013537 186.62313694 -247.22312546 187.66252518 C-243.28426652 188.75282431 -239.34234117 189.8319149 -235.40063477 190.91186523 C-228.85536922 192.70636119 -222.31171335 194.50661363 -215.76904297 196.31054688 C-206.50783821 198.86332184 -197.24131357 201.39630995 -187.97265625 203.921875 C-186.52603061 204.31622498 -185.07940585 204.71057819 -183.63278198 205.10493469 C-177.31851504 206.82586335 -171.00373288 208.54488097 -164.68806648 210.26066685 C-161.33481944 211.17176437 -157.98181378 212.08374767 -154.62890625 212.99609375 C-153.35532257 213.34262497 -152.08173889 213.68915619 -150.76956177 214.04618835 C-144.15162526 215.85165238 -137.54270838 217.68396243 -130.9466095 219.56767273 C-127.51920039 220.54627883 -124.08815985 221.51175224 -120.6567688 222.47628784 C-118.49942789 223.08962486 -116.34942815 223.72460493 -114.19897461 224.36157227 C-99.91524531 228.45234947 -85.86317277 228.82615294 -72.47265625 221.64453125 C-57.28469898 212.21839471 -53.03617634 195.94332303 -48.7890625 179.61328125 C-48.30363119 177.78726921 -47.81698949 175.96157859 -47.32923889 174.13618469 C-46.28914581 170.23403487 -45.25709969 166.32988276 -44.23153687 162.42388916 C-42.60952392 156.24648323 -40.97001268 150.07380912 -39.32739258 143.90185547 C-37.61874987 137.47865446 -35.91127587 131.0551553 -34.2099762 124.63000488 C-30.23080479 109.60383601 -26.21173664 94.58883473 -22.16015625 79.58203125 C-21.88518059 78.56351641 -21.61020493 77.54500156 -21.32689667 76.49562263 C-19.97301549 71.48186488 -18.61833313 66.46832411 -17.26312256 61.45492554 C-14.98818406 53.0387592 -12.71738274 44.62147711 -10.44695854 36.20409203 C-9.78954227 33.76719803 -9.13175913 31.33040335 -8.47389221 28.89363098 C-8.27077518 28.14082131 -8.06765814 27.38801165 -7.85838604 26.61238956 C-7.4662459 25.15935168 -7.07373709 23.70641323 -6.68082142 22.25358486 C-5.72355194 18.70866496 -4.77799938 15.16118168 -3.85147095 11.60809326 C-3.66828969 10.90915136 -3.48510843 10.21020947 -3.29637623 9.49008751 C-2.79669201 7.58004913 -2.30084135 5.66900902 -1.80525208 3.75790405 C-1 1 -1 1 0 0 Z "
        fill="#8d40a8"
        transform="translate(406,204)"
    />
    <!-- Вторая -->
    <path
        d="M0 0 C9.90260808 1.77917092 19.54874166 4.46511107 29.25390625 7.0859375 C31.12375456 7.58923519 32.99362287 8.09245859 34.86351013 8.59561157 C38.76829438 9.64730379 42.67232341 10.70174967 46.57592773 11.7578125 C51.55902724 13.10539647 56.54469226 14.44321331 61.53106785 15.77861595 C65.38875126 16.81343408 69.24461796 17.85489759 73.10001945 18.89818192 C74.93684142 19.39409486 76.77430317 19.88764477 78.61242867 20.37870407 C81.18830035 21.06761429 83.76147728 21.76584813 86.33422852 22.46630859 C87.45434578 22.76262428 87.45434578 22.76262428 88.59709167 23.06492615 C99.12296214 25.95990843 108.25219999 29.84132798 113.875 39.625 C120.47595894 52.08376357 116.64847497 66.47979543 113.03125 79.2734375 C112.60264869 80.84405896 112.175786 82.41515572 111.75050354 83.98667908 C110.83530683 87.35440616 109.90842458 90.71860185 108.97195435 94.08047485 C107.46440632 99.49282095 105.9832752 104.91219329 104.50561523 110.33276367 C102.67746404 117.03219143 100.84292971 123.72980862 99.00023174 130.42525005 C95.62851027 142.67787567 92.3034503 154.94259948 89.00390625 167.21484375 C88.75884464 168.12619835 88.51378304 169.03755295 88.26129532 169.97652435 C87.2706724 173.66089415 86.28019678 177.34530346 85.2900753 181.02980804 C83.55818502 187.47338804 81.82123973 193.91558901 80.08105469 200.35693359 C79.83410166 201.27104507 79.58714863 202.18515656 79.33271217 203.12696838 C78.83275788 204.97743941 78.33278647 206.82790582 77.832798 208.67836761 C73.91962478 223.1614172 70.01899309 237.64773235 66.13621521 252.13896179 C64.27762466 259.07472386 62.41397777 266.00912409 60.54890919 272.94314671 C59.28124303 277.65732382 58.01622515 282.37217622 56.75759888 287.08877563 C55.58904089 291.46781219 54.41367306 295.84496378 53.23314857 300.22078896 C52.80353907 301.8181318 52.3764474 303.41615442 51.9521389 305.01491356 C45.0899687 330.85454197 45.0899687 330.85454197 34.875 337.3515625 C18.44038391 345.75013469 1.13588536 338.88247659 -15.48302031 334.22886586 C-18.95107253 333.26224264 -22.42515748 332.3177806 -25.89859009 331.37071228 C-32.49290188 329.56919843 -39.08174025 327.74846382 -45.66875899 325.92048591 C-53.04100802 323.87554331 -60.4189343 321.85149881 -67.79752874 319.82959294 C-79.67688332 316.57401838 -91.55250128 313.30511577 -103.42480469 310.02392578 C-115.14460737 306.78497316 -126.86924235 303.56440616 -138.6015625 300.37109375 C-139.2802879 300.18631029 -139.95901329 300.00152683 -140.65830612 299.81114388 C-144.10521489 298.87290688 -147.55240655 297.9357179 -151 297 C-151 296.34 -151 295.68 -151 295 C-150.10102997 294.76292831 -149.20205994 294.52585663 -148.27584839 294.28160095 C-132.56146999 290.13714709 -116.84758164 285.99085404 -101.13745117 281.83032227 C-99.65721482 281.43831965 -99.65721482 281.43831965 -98.1470747 281.03839779 C-94.07833718 279.96083044 -90.00962083 278.88318341 -85.94099236 277.80520439 C-73.48816456 274.50600294 -61.03271191 271.21716262 -48.572258 267.94687557 C-40.65470633 265.86841434 -32.73962174 263.78073521 -24.8262558 261.68639469 C-20.11989356 260.44125511 -15.41240197 259.2008264 -10.70184326 257.97164917 C-6.26486999 256.81375145 -1.83137346 255.64337046 2.59986687 254.46372986 C4.21638678 254.0357226 5.83409311 253.61216476 7.45309639 253.19364929 C22.83705956 249.2119468 37.4856934 244.11544794 46.375 230.0625 C47.28417059 228.39316178 48.16175012 226.70605345 49 225 C49.3403125 224.31550781 49.680625 223.63101563 50.03125 222.92578125 C55.6200811 209.34181676 51.00588749 194.13473998 47.2265625 180.7578125 C46.72377481 178.91920461 46.22314375 177.0800058 45.72451782 175.24026489 C44.68362002 171.4071254 43.63320869 167.57678686 42.57580566 163.74816895 C40.30679831 155.50644658 38.15040936 147.23535395 35.98686981 138.96546173 C34.78347688 134.37193702 33.5711316 129.78077724 32.359375 125.18945312 C31.86651014 123.32105186 31.37367178 121.45264361 30.88085938 119.58422852 C30.51054596 118.18036392 30.51054596 118.18036392 30.13275146 116.74813843 C29.36136167 113.82328803 28.59029927 110.89835151 27.81933594 107.97338867 C22.66536401 88.42009036 17.5076213 68.86789907 12.29246902 49.33081436 C11.67468283 47.01635033 11.05730183 44.70177857 10.44003296 42.38717651 C8.74848683 36.04544194 7.05561145 29.70409071 5.35339928 23.36520958 C4.52457236 20.2754429 3.7002198 17.18448169 2.875 14.09375 C2.57937164 12.99833893 2.28374329 11.90292786 1.97915649 10.77432251 C1.58341934 9.28791763 1.58341934 9.28791763 1.1796875 7.77148438 C0.95007324 6.91566772 0.72045898 6.05985107 0.48388672 5.17810059 C0 3 0 3 0 0 Z "
        fill="#fea501"
        transform="translate(293,78)"
    />
</svg>
