<?xml version="1.0" encoding="UTF-8"?>
<svg version="1.1" xmlns="http://www.w3.org/2000/svg" width="512" height="512">
<path d="M0 0 C6.32363205 0.01140457 12.64709439 0.00480394 18.97072029 -0.00714493 C23.9283063 -0.01445699 28.88585368 -0.01203353 33.84344101 -0.00688934 C36.17204688 -0.00557916 38.50065656 -0.00710513 40.82925797 -0.01184845 C62.98969034 -0.04711996 84.96632003 1.49220711 106.96435547 4.13574219 C107.68206116 4.22166626 108.39976685 4.30759033 109.13922119 4.39611816 C138.55075765 7.95825145 165.8827913 15.80763971 187.46435547 37.26074219 C188.35123047 38.12699219 189.23810547 38.99324219 190.15185547 39.88574219 C190.91498047 40.66949219 191.67810547 41.45324219 192.46435547 42.26074219 C192.97095703 42.72222656 193.47755859 43.18371094 193.99951172 43.65917969 C206.00693391 54.87340086 214.50720573 70.77345126 219.77685547 86.19824219 C220.1223645 87.19730591 220.1223645 87.19730591 220.47485352 88.21655273 C227.07595421 108.77080573 227.13045964 130.91348521 228.46435547 152.26074219 C228.51746824 153.10959173 228.57058102 153.95844128 228.62530327 154.83301353 C230.12418619 179.1397081 230.57838049 203.3511363 230.30810547 227.70214844 C230.28243026 230.34795325 230.25707621 232.9937612 230.23204041 235.63957214 C230.12498783 246.47049813 230.01458474 257.30085772 229.81982422 268.13061523 C229.69881477 274.87394093 229.63111403 281.6160426 229.59346008 288.36042595 C229.57014939 290.8934248 229.52880248 293.4263309 229.46818542 295.95871162 C228.52322764 311.92053304 228.52322764 311.92053304 235.35229492 325.6484375 C237.02589875 327.21892821 238.72598259 328.76225943 240.46435547 330.26074219 C257.86268667 352.87240343 264.19499456 383.93299863 261.00341797 411.86230469 C256.79670889 442.39089836 241.39085917 470.41988438 216.91845703 489.33642578 C190.43833814 509.10739231 158.9715955 515.69646291 126.42529297 511.76464844 C118.90044156 510.58015644 111.86273457 508.16877963 104.84326172 505.24902344 C98.32861785 503.34358425 91.73354185 504.24321768 85.05740356 504.91142273 C59.98371557 507.38655698 34.81653532 507.4276619 9.64624023 507.39111328 C5.69154712 507.38541165 1.73692123 507.38881863 -2.21776962 507.3945446 C-26.39221576 507.42438247 -50.58826271 507.35379447 -74.66064453 504.88574219 C-76.00461594 504.75188748 -77.34861073 504.61826728 -78.69262695 504.48486328 C-82.64159776 504.08910894 -86.58846241 503.67394304 -90.53564453 503.26074219 C-92.29013916 503.08671875 -92.29013916 503.08671875 -94.08007812 502.90917969 C-112.28530821 501.09629819 -129.92019638 498.30402942 -146.53564453 490.26074219 C-147.71384766 489.69742187 -148.89205078 489.13410156 -150.10595703 488.55371094 C-175.45316458 475.98506454 -194.11276964 454.89815088 -205.53564453 429.26074219 C-206.25880859 427.6790625 -206.25880859 427.6790625 -206.99658203 426.06542969 C-213.40891851 410.87013536 -215.1101645 393.97794746 -216.43652344 377.68041992 C-216.6530501 375.04082305 -216.89157501 372.40399355 -217.13330078 369.76660156 C-220.34224271 333.1405303 -220.87649836 296.31556308 -220.79638672 259.57226562 C-220.78499352 254.31328498 -220.79179719 249.05450697 -220.80326176 243.79553318 C-220.87089859 207.16670149 -220.2392691 170.43494717 -216.84057617 133.94067383 C-216.58698617 131.20277014 -216.3546897 128.46351504 -216.12353516 125.72363281 C-212.865664 88.45293085 -200.43024888 56.99328002 -171.78564453 32.07324219 C-148.98062806 13.73518771 -123.50263312 7.26505735 -94.91064453 4.07324219 C-93.85472107 3.9548851 -93.85472107 3.9548851 -92.77746582 3.83413696 C-88.23420729 3.33484944 -83.68738661 2.89964122 -79.13458252 2.49700928 C-77.38853283 2.33827749 -75.64333785 2.16987344 -73.89910889 1.99224854 C-49.34159267 -0.48331842 -24.65128277 -0.04488407 0 0 Z " fill="#6EB947" transform="translate(235.53564453125,-0.2607421875)"/>
<path d="M0 0 C1.40559697 1.18308083 2.83574026 2.33684863 4.26855469 3.48681641 C16.41503423 13.65997199 24.10737534 27.06228239 30.55761719 41.31103516 C30.96625 42.17986328 31.37488281 43.04869141 31.79589844 43.94384766 C43.70862364 71.08094368 41.74574503 103.06233666 31.38574219 130.23291016 C19.69458772 159.57109023 -2.92178294 180.65101753 -31.31738281 193.56103516 C-58.05709615 204.63719181 -91.41072611 205.27164836 -118.22363281 194.23681641 C-130.64110938 188.77466119 -142.49844703 181.55232725 -152.44238281 172.31103516 C-152.92755371 171.86679199 -153.41272461 171.42254883 -153.91259766 170.96484375 C-174.20781088 152.22536116 -189.00163161 124.63592271 -190.59033203 96.71044922 C-191.81994638 62.04878314 -181.54018388 31.38637142 -157.83789062 5.74072266 C-154.03717612 1.84691857 -149.79988962 -1.44958661 -145.44238281 -4.68896484 C-144.66636719 -5.29095703 -143.89035156 -5.89294922 -143.09082031 -6.51318359 C-100.21035056 -38.42256326 -40.14810612 -33.89941979 0 0 Z " fill="#34344F" transform="translate(457.4423828125,310.68896484375)"/>
<path d="M0 0 C1 2 1 2 0.07421875 5.16015625 C-0.38239667 6.4629224 -0.84499173 7.76360304 -1.3125 9.0625 C-11.48409044 38.48546479 -8.30688922 69.17547129 4.8828125 97.08203125 C17.01776694 121.52560675 36.5139891 137.0774123 60 150 C60 150.33 60 150.66 60 151 C55.5850773 151.49609544 51.16784606 151.96821299 46.75 152.4375 C44.955625 152.63956055 44.955625 152.63956055 43.125 152.84570312 C18.91721058 155.37764028 -5.50567593 155.16559476 -29.81811523 155.13037109 C-33.77280835 155.12466946 -37.72743424 155.12807644 -41.68212509 155.13380241 C-65.85657123 155.16364028 -90.05261818 155.09305228 -114.125 152.625 C-115.46897141 152.49114529 -116.8129662 152.3575251 -118.15698242 152.22412109 C-122.10595322 151.82836675 -126.05281787 151.41320085 -130 151 C-131.16966309 150.88398438 -132.33932617 150.76796875 -133.54443359 150.6484375 C-151.74966368 148.835556 -169.38455185 146.04328724 -186 138 C-187.76730469 137.15501953 -187.76730469 137.15501953 -189.5703125 136.29296875 C-214.91752005 123.72432236 -233.57712511 102.6374087 -245 77 C-245.48210937 75.94554687 -245.96421875 74.89109375 -246.4609375 73.8046875 C-252.41014945 59.70685798 -254.53925853 44.20446836 -255 29 C-249.84735715 30.50475411 -244.74816562 32.08374282 -239.6875 33.875 C-212.67694515 42.92474944 -183.75353777 46.43156455 -155.375 46.3125 C-154.50969666 46.31134186 -153.64439331 46.31018372 -152.75286865 46.30899048 C-139.20295221 46.27333362 -125.94210185 45.55238242 -112.54296875 43.40136719 C-110.17783542 43.02806849 -107.8131668 42.71154275 -105.4375 42.4140625 C-68.35589467 37.45763092 -30.82569062 20.86808732 0 0 Z " fill="#56B136" transform="translate(275,352)"/>
<path d="M0 0 C17.63242902 1.97892331 34.69200011 13.76526201 47 26 C47.886875 26.86625 48.77375 27.7325 49.6875 28.625 C50.8321875 29.800625 50.8321875 29.800625 52 31 C52.50660156 31.46148437 53.01320313 31.92296875 53.53515625 32.3984375 C65.54257844 43.61265868 74.04285026 59.51270907 79.3125 74.9375 C79.54283936 75.60354248 79.77317871 76.26958496 80.01049805 76.95581055 C95.86784049 126.33179241 90.35044487 188.14644904 90.26074219 239.1628418 C90.25027783 245.17984575 90.25357484 251.1966768 90.264395 257.21366698 C90.27454482 263.09826588 90.27350543 268.98282334 90.26763153 274.86742973 C90.26630161 277.33981788 90.26791962 279.81220949 90.27259064 282.28459358 C90.27764684 285.69641585 90.26996951 289.10797303 90.25878906 292.51977539 C90.26283752 293.52873367 90.26688599 294.53769196 90.27105713 295.57722473 C90.26541748 296.50214722 90.25977783 297.4270697 90.25396729 298.38002014 C90.25321323 299.18068437 90.25245918 299.98134859 90.25168228 300.80627537 C89.97164934 303.24711135 89.21744458 304.88304409 88 307 C87.13375 306.05125 86.2675 305.1025 85.375 304.125 C70.16540948 289.0370862 50.55843055 280.03083846 30 275 C29.21705566 274.80422363 28.43411133 274.60844727 27.62744141 274.40673828 C20.82116101 272.86153608 14.21052593 272.69142258 7.25 272.75 C6.10200928 272.75604248 4.95401855 272.76208496 3.77124023 272.76831055 C-7.53246533 272.90040995 -17.96687426 274.08697222 -28.79296875 277.51171875 C-31 278 -31 278 -34 277 C-33.47792969 276.34257812 -32.95585937 275.68515625 -32.41796875 275.0078125 C-6.77863365 241.86975767 11.01153461 200.9766101 17.578125 159.61621094 C17.85228633 157.91602989 18.14305934 156.21841505 18.453125 154.52441406 C27.89985954 102.70988951 19.33835473 48.43145476 0 0 Z " fill="#57B136" transform="translate(376,11)"/>
<path d="M0 0 C0.93064111 -0.00438225 1.86128221 -0.00876451 2.82012457 -0.01327956 C5.95214215 -0.02668038 9.08413159 -0.03284936 12.21617126 -0.03897095 C14.45651884 -0.046871 16.69686513 -0.05513989 18.93721008 -0.06375122 C26.30744713 -0.08998599 33.67768989 -0.10528191 41.04795837 -0.11953735 C43.58454835 -0.12489674 46.12113829 -0.13027424 48.6577282 -0.13566971 C59.21006436 -0.15730197 69.76239919 -0.17618943 80.31475163 -0.1872921 C83.05288764 -0.19022169 85.79102362 -0.19318336 88.52915955 -0.19619751 C89.20969072 -0.19694356 89.89022189 -0.19768961 90.59137522 -0.19845827 C101.6067023 -0.21110212 112.62186761 -0.24431226 123.63711912 -0.28599934 C134.95321404 -0.32847281 146.26919629 -0.35158619 157.58538145 -0.35721266 C163.9361481 -0.36086535 170.28664064 -0.37287823 176.63733101 -0.4053154 C182.61523902 -0.43541004 188.59270727 -0.4417025 194.5706749 -0.42993164 C196.76118421 -0.42971102 198.951714 -0.43800672 201.14215279 -0.45558548 C223.56518783 -0.62569495 223.56518783 -0.62569495 231.88517857 6.83228493 C236.60299434 11.56966878 238.77549579 17.24399582 239.17686462 23.85702515 C238.89024123 31.75019236 236.05711158 37.36872264 230.30577087 42.7515564 C223.68467498 47.87804825 216.70782552 48.45058832 208.60705566 48.42132568 C207.67975283 48.4258568 206.75245 48.43038791 205.79704708 48.43505633 C202.70037587 48.44768225 199.60388094 48.44608113 196.50718689 48.44442749 C194.28270746 48.45041376 192.05823012 48.45721954 189.83375549 48.46478271 C183.79869023 48.48243738 177.7636817 48.48713781 171.72859311 48.48841429 C167.95734076 48.48983647 164.18610282 48.49410728 160.41485405 48.49940872 C147.93510995 48.51695136 135.45539808 48.5262492 122.97564424 48.52474777 C122.30365585 48.52466786 121.63166747 48.52458795 120.9393158 48.52450562 C119.93009696 48.52438297 119.93009696 48.52438297 118.90048986 48.52425785 C107.99401669 48.52344475 97.08768156 48.54259152 86.18124831 48.57078235 C74.97125813 48.59952833 63.76133318 48.6129557 52.55129856 48.6115948 C46.26218955 48.6110849 39.97323689 48.61678376 33.68416023 48.6379509 C27.77025432 48.65731264 21.85665427 48.65747163 15.94273758 48.64291763 C13.77397274 48.64082607 11.60518885 48.64555107 9.43645668 48.65763855 C6.47245594 48.67308702 3.50951044 48.66378514 0.54553223 48.64837646 C-0.30963547 48.65866359 -1.16480316 48.66895072 -2.04588503 48.67954957 C-9.82008453 48.59043061 -16.45180011 45.68929791 -21.98719788 40.15390015 C-26.84520769 34.10151775 -27.84064293 28.26458595 -27.52626038 20.5953064 C-26.50564714 14.07965233 -23.74835839 9.45017139 -18.69032288 5.2437439 C-12.39406316 0.89191733 -7.60570062 0.00432431 0 0 Z " fill="#FDFEFD" transform="translate(134.98719787597656,132.84609985351563)"/>
<path d="M0 0 C1.12833252 -0.00997513 2.25666504 -0.01995026 3.41918945 -0.03022766 C4.64785233 -0.03089233 5.8765152 -0.03155701 7.14241028 -0.03224182 C8.44380951 -0.04056534 9.74520874 -0.04888885 11.08604431 -0.0574646 C14.65036426 -0.07937305 18.21459844 -0.08820398 21.77897811 -0.09329104 C24.00948517 -0.0969401 26.23996997 -0.10318312 28.47046852 -0.11029243 C36.2626557 -0.13477793 44.05477644 -0.14783608 51.84700012 -0.15138245 C59.0924052 -0.15501313 66.33738548 -0.18487689 73.58266085 -0.22678703 C79.81642665 -0.2615724 86.05005228 -0.27693233 92.28391439 -0.27762848 C96.00111169 -0.27841875 99.71787637 -0.28704019 103.43497276 -0.31562614 C107.58775246 -0.3468487 111.73953186 -0.33770799 115.89241028 -0.32521057 C117.110952 -0.34004486 118.32949371 -0.35487915 119.58496094 -0.37016296 C128.35725763 -0.29519169 135.33131485 1.46093473 141.81355286 7.62571716 C142.33820129 8.37595154 142.86284973 9.12618591 143.40339661 9.89915466 C144.22517395 11.0322406 144.22517395 11.0322406 145.06355286 12.18821716 C148.57649325 17.92494551 148.0533325 24.79997995 147.34089661 31.27415466 C145.05138986 37.69491159 141.365777 41.9933891 135.46589661 45.33665466 C134.76464661 45.64602966 134.06339661 45.95540466 133.34089661 46.27415466 C132.56776123 46.61717117 131.79462585 46.96018768 130.99806213 47.31359863 C125.57711676 48.73741217 120.28402337 48.57745117 114.70124817 48.58055115 C113.42896362 48.58887466 112.15667908 48.59719818 110.84584045 48.60577393 C107.3662875 48.62765138 103.88682239 48.63650885 100.40720844 48.64160037 C98.22912632 48.64525243 96.0510669 48.65149692 93.87299347 48.65860176 C86.26234942 48.68307432 78.65177329 48.69614307 71.04109192 48.69969177 C63.96664087 48.70332376 56.89262451 48.73320015 49.81830621 48.77509636 C43.7288924 48.80988475 37.63962205 48.82524169 31.55010962 48.82593781 C27.92011338 48.82672783 24.29056025 48.83533803 20.66066742 48.86393547 C16.60617832 48.89516546 12.55271346 48.88601594 8.49812317 48.8735199 C6.71474548 48.89577133 6.71474548 48.89577133 4.89533997 48.91847229 C-3.41213828 48.84577529 -10.28738452 47.26526811 -16.56620407 41.53308773 C-21.16865179 36.61927771 -23.75755576 31.22456226 -24.15910339 24.46165466 C-23.91121173 17.66529148 -21.29666915 12.1510157 -16.72160339 7.16087341 C-11.52693725 2.4089345 -7.16188212 0.03405772 0 0 Z " fill="#FDFEFD" transform="translate(131.6591033935547,234.72584533691406)"/>
<path d="M0 0 C8.19046572 4.56775973 8.19046572 4.56775973 9.56712341 8.70391846 C10.11044047 11.58580282 10.11939309 14.30345511 10.11352539 17.23730469 C10.11344986 18.49830994 10.11337433 19.75931519 10.11329651 21.05853271 C10.10819028 22.42964721 10.1029743 23.80076131 10.09765625 25.171875 C10.09579028 26.57863311 10.09436722 27.98539188 10.09336853 29.39215088 C10.08955744 33.08780727 10.0797392 36.78342413 10.06866455 40.47906494 C10.05842014 44.25296494 10.05386442 48.02687135 10.04882812 51.80078125 C10.03811564 59.20053882 10.02105616 66.60026386 10 74 C11.08941895 73.98428955 12.17883789 73.9685791 13.30126953 73.95239258 C17.36027575 73.89791022 21.4192499 73.86358361 25.47851562 73.83520508 C27.23215173 73.82016005 28.98575047 73.79971896 30.73925781 73.77368164 C33.26637009 73.73710879 35.79298296 73.7202308 38.3203125 73.70703125 C39.09867462 73.69154739 39.87703674 73.67606354 40.6789856 73.66011047 C46.6917476 73.65827011 50.73997007 75.03734243 55.375 79.0625 C57.75940781 83.37277565 57.75663519 87.18224124 57 92 C54.60842741 97.05909586 52.17868963 99.0482308 47 101 C42.8645449 101.45067215 38.75060855 101.44417502 34.59375 101.43359375 C33.39568726 101.4388356 32.19762451 101.44407745 30.96325684 101.44947815 C28.43498508 101.45589002 25.90668347 101.45457223 23.37841797 101.44604492 C19.513457 101.43752965 15.64997155 101.46631968 11.78515625 101.49804688 C9.32552128 101.49965889 6.86588369 101.49908135 4.40625 101.49609375 C3.25298218 101.50732773 2.09971436 101.51856171 0.91149902 101.53013611 C-5.13898003 101.4776455 -9.437673 101.43349205 -14 97 C-16.88529627 92.30749877 -17.44577886 88.29624705 -17.43579102 82.90258789 C-17.44586685 82.11316299 -17.45594269 81.3237381 -17.46632385 80.51039124 C-17.49469951 77.91433351 -17.50067466 75.31885916 -17.50390625 72.72265625 C-17.51355324 70.90953842 -17.52364616 69.09642292 -17.53416443 67.28330994 C-17.55209879 63.48805325 -17.5576881 59.69300113 -17.5559082 55.89770508 C-17.55560319 51.0440823 -17.59658748 46.19177477 -17.64822483 41.33846378 C-17.68164287 37.59539306 -17.68766417 33.85263874 -17.68607903 30.10943413 C-17.68960961 28.32050472 -17.70282596 26.5315663 -17.72607613 24.7427845 C-17.91135335 9.01896058 -17.91135335 9.01896058 -14.20678711 4.47436523 C-9.86909233 0.51405341 -5.85168032 -0.60534624 0 0 Z " fill="#FEFEFE" transform="translate(383,313)"/>
</svg>
