<?xml version="1.0" encoding="UTF-8"?>
<svg version="1.1" xmlns="http://www.w3.org/2000/svg" width="512" height="512">
<path d="M0 0 C33.01767963 -0.6247887 33.01767963 -0.6247887 45 3 C45.69416016 3.19867676 46.38832031 3.39735352 47.10351562 3.60205078 C75.52671613 11.81524833 94.89437891 29.72748355 115.36376953 50.25024414 C116.8921037 51.77886085 118.42065902 53.30725647 119.94941711 54.83544922 C124.07283568 58.95858241 128.19317685 63.08477826 132.3129487 67.21155477 C136.62861468 71.53349758 140.94713731 75.85258412 145.26535034 80.17198181 C153.43040734 88.3401394 161.59291319 96.51084142 169.75449264 104.6824736 C179.05123263 113.99041433 188.35083275 123.29549526 197.65066743 132.60034382 C216.77028297 151.73039493 235.88632596 170.86401261 255 190 C257.76686566 188.73463027 259.80686705 187.44122056 261.94907093 185.28585148 C262.78315644 184.45403893 262.78315644 184.45403893 263.63409215 183.60542208 C264.23476072 182.99619935 264.83542928 182.38697662 265.45429993 181.7592926 C266.10050252 181.1119766 266.74670511 180.4646606 267.41248959 179.79772896 C269.58095249 177.62318477 271.74217787 175.44158588 273.90356445 173.26000977 C275.45569204 171.7007705 277.00829053 170.14199987 278.56132507 168.58366394 C281.90890108 165.22297349 285.25344357 161.85930256 288.59578896 158.49341011 C293.89087749 153.16172771 299.19465908 147.83875128 304.50004578 142.51731873 C311.94820567 135.04532051 319.39430135 127.57127436 326.8371582 120.09399414 C327.3094599 119.61951219 327.7817616 119.14503025 328.26837548 118.65617006 C334.95057522 111.94284009 341.62974119 105.22650001 348.30764886 98.50890093 C348.77661546 98.03714771 349.24558206 97.56539448 349.72875977 97.0793457 C350.19714712 96.60817129 350.66553447 96.13699688 351.14811537 95.65154446 C358.99340459 87.75998201 366.84669052 79.87642481 374.70608109 71.9989056 C379.97049323 66.72147963 385.2257976 61.43520508 390.47434676 56.14200509 C393.76055208 52.83215068 397.0552731 49.5308729 400.35232735 46.23182869 C401.86700513 44.71289599 403.37828921 43.19056932 404.88568497 41.66440964 C423.10248316 23.22990577 441.92615855 10.17642677 467 3 C468.69382812 2.48759766 468.69382812 2.48759766 470.421875 1.96484375 C483.82811098 -1.41818528 498.27689294 -0.25968034 512 0 C512.6247887 33.01767963 512.6247887 33.01767963 509 45 C508.70198486 46.04124023 508.70198486 46.04124023 508.39794922 47.10351562 C500.18475167 75.52671613 482.27251645 94.89437891 461.74975586 115.36376953 C460.22113915 116.8921037 458.69274353 118.42065902 457.16455078 119.94941711 C453.04141759 124.07283568 448.91522174 128.19317685 444.78844523 132.3129487 C440.46650242 136.62861468 436.14741588 140.94713731 431.82801819 145.26535034 C423.6598606 153.43040734 415.48915858 161.59291319 407.3175264 169.75449264 C398.00958567 179.05123263 388.70450474 188.35083275 379.39965618 197.65066743 C360.26960507 216.77028297 341.13598739 235.88632596 322 255 C323.66415489 258.53064237 325.57676893 260.81935682 328.35791016 263.58496094 C329.70908432 264.93590851 329.70908432 264.93590851 331.08755493 266.31414795 C332.07128408 267.28766481 333.0551225 268.26107125 334.0390625 269.234375 C335.04555128 270.23713161 336.05159789 271.24033222 337.05722046 272.24395752 C339.69962147 274.87873813 342.34797428 277.50745611 344.99761963 280.13494873 C347.70256052 282.81939688 350.40181821 285.50954622 353.1015625 288.19921875 C358.39550174 293.47173618 363.69574283 298.73786057 369 304 C374.39141468 299.51971105 379.31629472 294.74756862 384.19921875 289.72265625 C385.75266038 288.14199332 387.30671456 286.56193219 388.86132812 284.98242188 C391.29001673 282.51026239 393.71461909 280.03457826 396.12915039 277.54858398 C398.47456459 275.13690846 400.83529508 272.74117254 403.19921875 270.34765625 C404.28368538 269.2197744 404.28368538 269.2197744 405.39006042 268.06910706 C406.06789078 267.38767136 406.74572113 266.70623566 407.4440918 266.00415039 C408.03586716 265.39825577 408.62764252 264.79236115 409.23735046 264.16810608 C411 263 411 263 413.07911682 263.19039917 C415.91827438 264.38702807 417.61517629 266.28085276 419.765625 268.47265625 C421.09980469 269.82133789 421.09980469 269.82133789 422.4609375 271.19726562 C423.84152344 272.61555664 423.84152344 272.61555664 425.25 274.0625 C426.19461673 275.02216973 427.13992195 275.98116229 428.0859375 276.93945312 C430.39749172 279.28638828 432.7017634 281.64003391 435 284 C434.60458008 284.50789063 434.20916016 285.01578125 433.80175781 285.5390625 C425.42350038 296.4712298 419.74306737 309.07407115 421.22607422 323.14501953 C421.67488489 326.07579934 422.20519497 328.98048107 422.84413338 331.87600899 C423.69069902 335.95076418 424.09438696 339.47300529 423.55856323 343.61447144 C422.63994242 351.10659463 422.40217848 357.43949447 427.019104 363.74957275 C431.33590693 368.83476095 436.1957131 373.34240021 441.0703125 377.8828125 C442.83178031 379.59671296 444.58853579 381.31546851 446.34078979 383.03878784 C450.94226999 387.54178791 455.59872942 391.98315042 460.27166748 396.4118042 C466.8454264 402.66270379 473.34107892 408.99488799 479.84494019 415.31832886 C483.30175249 418.67893252 486.77905345 422.01582873 490.27542114 425.3352356 C491.8726768 426.86678027 493.46983946 428.39842194 495.06689453 429.93017578 C496.14259956 430.93717781 496.14259956 430.93717781 497.24003601 431.96452332 C505.59492382 440.0288433 511.74056306 450.08333225 512.43359375 461.8671875 C512.45695172 463.53629541 512.45779066 465.20585198 512.4375 466.875 C512.42614014 468.190448 512.42614014 468.190448 512.41455078 469.5324707 C512.24262829 476.30584031 511.260224 481.97877379 508 488 C507.5875 488.77214844 507.175 489.54429687 506.75 490.33984375 C500.44559665 500.81733227 490.86755156 508.183623 479.11645508 511.53759766 C467.67438494 514.03745702 454.09988517 512.94495182 444 507 C437.85979092 502.59068171 432.49844903 497.71726737 427.3190918 492.22875977 C425.84831519 490.69208159 424.37724799 489.15568151 422.90592957 487.61952209 C422.13997152 486.81612963 421.37401348 486.01273716 420.58484459 485.18499947 C416.47316028 480.88723075 412.31873263 476.63102699 408.16992188 472.36914062 C402.91296109 466.96824163 397.67055473 461.55588003 392.48510742 456.08618164 C388.27179305 451.64422459 384.01027254 447.25391948 379.71293068 442.89326286 C378.09496372 441.23361611 376.49488274 439.55631854 374.91440392 437.8609333 C365.9322469 427.73122685 365.9322469 427.73122685 353.73916626 423.05221558 C349.54022394 422.93005999 345.48771228 423.35513487 341.32679176 423.86695671 C337.34721299 424.09450447 333.6175005 423.22820193 329.75 422.375 C315.55648404 419.65565444 303.21798935 422.19199898 291.125 430.125 C289.74663758 431.07849085 288.3712319 432.0362828 287 433 C286.01 433.66 285.02 434.32 284 435 C277.07 428.07 270.14 421.14 263 414 C264.78758445 410.4248311 266.05595502 408.69924469 268.80712891 405.96582031 C269.58778717 405.18531311 270.36844543 404.40480591 271.17276001 403.60064697 C272.01551483 402.76821472 272.85826965 401.93578247 273.7265625 401.078125 C275.02078629 399.78814606 275.02078629 399.78814606 276.34115601 398.47210693 C279.09778029 395.7266769 281.86127799 392.9882831 284.625 390.25 C286.49524857 388.38978217 288.36504589 386.52911054 290.234375 384.66796875 C294.8176936 380.10670055 299.40667478 375.55118989 304 371 C302.4819272 367.4252101 300.38425289 365.14188276 297.64208984 362.41503906 C296.29091568 361.06409149 296.29091568 361.06409149 294.91244507 359.68585205 C293.92871592 358.71233519 292.9448775 357.73892875 291.9609375 356.765625 C290.95444872 355.76286839 289.94840211 354.75966778 288.94277954 353.75604248 C286.30037853 351.12126187 283.65202572 348.49254389 281.00238037 345.86505127 C278.29743948 343.18060312 275.59818179 340.49045378 272.8984375 337.80078125 C267.60449826 332.52826382 262.30425717 327.26213943 257 322 C253.4252101 323.5180728 251.14188276 325.61574711 248.41503906 328.35791016 C247.51440735 329.25869293 246.61377563 330.15947571 245.68585205 331.08755493 C244.71233519 332.07128408 243.73892875 333.0551225 242.765625 334.0390625 C241.76286839 335.04555128 240.75966778 336.05159789 239.75604248 337.05722046 C237.12126187 339.69962147 234.49254389 342.34797428 231.86505127 344.99761963 C229.18060312 347.70256052 226.49045378 350.40181821 223.80078125 353.1015625 C218.52826382 358.39550174 213.26213943 363.69574283 208 369 C209.44580966 372.31613882 211.24829792 374.49185728 213.80712891 377.03417969 C214.58778717 377.81468689 215.36844543 378.59519409 216.17276001 379.39935303 C217.01551483 380.23178528 217.85826965 381.06421753 218.7265625 381.921875 C219.58937836 382.78186096 220.45219421 383.64184692 221.34115601 384.52789307 C224.09778029 387.2733231 226.86127799 390.0117169 229.625 392.75 C231.49524857 394.61021783 233.36504589 396.47088946 235.234375 398.33203125 C239.8176936 402.89329945 244.40667478 407.44881011 249 412 C247.3413812 415.52344644 245.43342692 417.79901878 242.6484375 420.546875 C241.79765625 421.39121094 240.946875 422.23554688 240.0703125 423.10546875 C239.18085938 423.97816406 238.29140625 424.85085938 237.375 425.75 C236.4778125 426.63816406 235.580625 427.52632813 234.65625 428.44140625 C232.44192996 430.63216969 230.22307565 432.81812763 228 435 C227.48123291 434.5987793 226.96246582 434.19755859 226.42797852 433.78417969 C215.61593507 425.52857385 203.02553665 419.44755329 189.01806641 421.25585938 C186.10745267 421.74764102 183.20979748 422.28874459 180.32061577 422.89424324 C176.1797405 423.69504236 172.55773761 424.09617569 168.3611145 423.55245972 C160.87493159 422.63555958 154.55541886 422.40718286 148.25140381 427.01934814 C143.16547169 431.33574943 138.65779633 436.19550209 134.1171875 441.0703125 C132.40328704 442.83178031 130.68453149 444.58853579 128.96121216 446.34078979 C124.45821209 450.94226999 120.01684958 455.59872942 115.5881958 460.27166748 C109.33729621 466.8454264 103.00511201 473.34107892 96.68167114 479.84494019 C93.32106748 483.30175249 89.98417127 486.77905345 86.6647644 490.27542114 C85.13321973 491.8726768 83.60157806 493.46983946 82.06982422 495.06689453 C81.06282219 496.14259956 81.06282219 496.14259956 80.03547668 497.24003601 C71.24103333 506.35135448 60.55145111 512.25494588 47.75708008 512.51928711 C46.92974365 512.51292236 46.10240723 512.50655762 45.25 512.5 C44.37819092 512.49427979 43.50638184 512.48855957 42.6081543 512.48266602 C28.78429749 512.10345797 18.62139734 506.08393411 9.25 496.25 C-0.42396902 484.73122759 -1.05466337 471.33222709 0 457 C2.2320187 445.26173296 10.39282292 436.06947672 18.86303711 428.11376953 C20.41974989 426.6226494 21.97638181 425.13144485 23.53294373 423.64016724 C24.34713713 422.86590519 25.16133053 422.09164314 26.00019646 421.29391861 C30.35868723 417.13556038 34.66801391 412.9265557 38.98632812 408.7265625 C44.45995966 403.40852912 49.94667914 398.10647976 55.48657227 392.85742188 C59.98670996 388.59098046 64.4352985 384.27627667 68.85455513 379.92617416 C70.53639802 378.28851101 72.23602518 376.66889165 73.95387077 375.06903458 C84.18972225 366.02546288 84.18972225 366.02546288 88.96121216 353.7477417 C89.08548995 349.55802295 88.65325541 345.51988884 88.13656807 341.36915207 C87.89640789 337.20290741 88.78685687 333.25041765 89.625 329.1875 C92.37321946 313.9106881 89.13803704 301.62441625 80.3671875 288.9453125 C79.91601562 288.30335938 79.46484375 287.66140625 79 287 C78.01 285.515 78.01 285.515 77 284 C87.395 273.605 87.395 273.605 98 263 C101.5751689 264.78758445 103.30075531 266.05595502 106.03417969 268.80712891 C106.81468689 269.58778717 107.59519409 270.36844543 108.39935303 271.17276001 C109.23178528 272.01551483 110.06421753 272.85826965 110.921875 273.7265625 C111.78186096 274.58937836 112.64184692 275.45219421 113.52789307 276.34115601 C116.2733231 279.09778029 119.0117169 281.86127799 121.75 284.625 C123.61021783 286.49524857 125.47088946 288.36504589 127.33203125 290.234375 C131.89329945 294.8176936 136.44881011 299.40667478 141 304 C144.5747899 302.4819272 146.85811724 300.38425289 149.58496094 297.64208984 C150.48559265 296.74130707 151.38622437 295.84052429 152.31414795 294.91244507 C153.28766481 293.92871592 154.26107125 292.9448775 155.234375 291.9609375 C156.23713161 290.95444872 157.24033222 289.94840211 158.24395752 288.94277954 C160.87873813 286.30037853 163.50745611 283.65202572 166.13494873 281.00238037 C168.81939688 278.29743948 171.50954622 275.59818179 174.19921875 272.8984375 C179.47173618 267.60449826 184.73786057 262.30425717 190 257 C188.73463027 254.23313434 187.44122056 252.19313295 185.28585148 250.05092907 C184.73130978 249.49487207 184.17676808 248.93881506 183.60542208 248.36590785 C182.69158799 247.464905 182.69158799 247.464905 181.7592926 246.54570007 C181.1119766 245.89949748 180.4646606 245.25329489 179.79772896 244.58751041 C177.62318477 242.41904751 175.44158588 240.25782213 173.26000977 238.09643555 C171.7007705 236.54430796 170.14199987 234.99170947 168.58366394 233.43867493 C165.22297349 230.09109892 161.85930256 226.74655643 158.49341011 223.40421104 C153.16172771 218.10912251 147.83875128 212.80534092 142.51731873 207.49995422 C135.04532051 200.05179433 127.57127436 192.60569865 120.09399414 185.1628418 C119.61951219 184.6905401 119.14503025 184.2182384 118.65617006 183.73162452 C111.94284009 177.04942478 105.22650001 170.37025881 98.50890093 163.69235114 C97.80127109 162.98890124 97.80127109 162.98890124 97.0793457 162.27124023 C96.60817129 161.80285288 96.13699688 161.33446553 95.65154446 160.85188463 C87.75998201 153.00659541 79.87642481 145.15330948 71.9989056 137.29391891 C66.72147963 132.02950677 61.43520508 126.7742024 56.14200509 121.52565324 C52.83215068 118.23944792 49.5308729 114.9447269 46.23182869 111.64767265 C44.71289599 110.13299487 43.19056932 108.62171079 41.66440964 107.11431503 C23.22990577 88.89751684 10.17642677 70.07384145 3 45 C2.65839844 43.87078125 2.31679688 42.7415625 1.96484375 41.578125 C-1.41818528 28.17188902 -0.25968034 13.72310706 0 0 Z " fill="#E1E6F0" transform="translate(0,0)"/>
<path d="M0 0 C33.01767963 -0.6247887 33.01767963 -0.6247887 45 3 C45.69416016 3.19867676 46.38832031 3.39735352 47.10351562 3.60205078 C75.57242152 11.82845541 94.95449561 29.78786917 115.45556641 50.34204102 C116.99375267 51.88050981 118.53216008 53.41875753 120.07077026 54.95680237 C124.22104747 59.10679417 128.36824716 63.25984886 132.5148778 67.41348386 C136.85857115 71.76345373 141.20512085 76.11056764 145.55136108 80.45799255 C153.76954198 88.67927413 161.98517172 96.90310017 170.19987524 105.12785619 C179.55707371 114.49625512 188.91713207 123.8617945 198.27742505 133.22710145 C217.5214546 152.48156677 236.76191163 171.73959868 256 191 C254.11051595 195.10444852 251.35627449 197.9114135 248.17333984 201.05371094 C247.57807999 201.64926285 246.98282013 202.24481476 246.36952209 202.8584137 C244.40469823 204.82184643 242.43288961 206.77810373 240.4609375 208.734375 C239.09572521 210.0958564 237.73095439 211.45778061 236.36660767 212.82012939 C232.77726841 216.40183824 229.1819632 219.9774999 225.58538818 223.55194092 C221.91528681 227.20157121 218.25085171 230.85688092 214.5859375 234.51171875 C207.39616348 241.68005329 200.20007484 248.842013 193 256 C190.22982258 254.73237048 188.17882821 253.42979386 186.02413845 251.28140736 C185.46213126 250.72584905 184.90012406 250.17029075 184.32108635 249.59789735 C183.41015436 248.68231956 183.41015436 248.68231956 182.4808197 247.74824524 C181.8277113 247.09966795 181.17460289 246.45109065 180.50170332 245.7828595 C178.31006017 243.60389635 176.12564843 241.41782582 173.94116211 239.23168945 C172.37263306 237.66914387 170.80369392 236.10700986 169.234375 234.54525757 C164.96669847 230.2952785 160.70556084 226.0388007 156.4460876 221.78060174 C153.7810152 219.11695075 151.11452378 216.45472899 148.44751167 213.79302025 C139.61296272 204.97603586 130.78257041 196.15491767 121.9575501 187.32839773 C121.48179538 186.8525631 121.00604067 186.37672847 120.51586914 185.88647461 C120.03952758 185.41005129 119.56318603 184.93362797 119.07240988 184.44276758 C111.37690074 176.74644803 103.67149916 169.06011938 95.96146803 161.37835024 C88.02888932 153.47461761 80.10409023 145.5631412 72.18659788 137.64429253 C67.7481272 133.20531401 63.30666653 128.76943656 58.85731316 124.34136391 C54.66312749 120.1666895 50.47885125 115.98232111 46.30164337 111.79066086 C44.77620735 110.26315073 43.24742621 108.73897179 41.71486855 107.21860695 C23.29337589 88.93407598 10.18867039 70.11661968 3 45 C2.65839844 43.87078125 2.31679688 42.7415625 1.96484375 41.578125 C-1.41818528 28.17188902 -0.25968034 13.72310706 0 0 Z " fill="#E0E5EF" transform="translate(0,0)"/>
<path d="M0 0 C2.84037087 1.1942071 4.53601797 3.08842764 6.68650818 5.28027344 C7.5759613 6.17939453 8.46541443 7.07851563 9.38182068 8.00488281 C10.3022113 8.95041016 11.22260193 9.8959375 12.17088318 10.87011719 C13.1154999 11.82978692 14.06080513 12.78877947 15.00682068 13.74707031 C17.3183749 16.09400547 19.62264658 18.44765109 21.92088318 20.80761719 C21.3277533 21.56945312 21.3277533 21.56945312 20.72264099 22.34667969 C12.34438356 33.27884699 6.66395055 45.88168834 8.1469574 59.95263672 C8.59576807 62.88341652 9.12607815 65.78809826 9.76501656 68.68362617 C10.6115822 72.75838137 11.01527014 76.28062247 10.47944641 80.42208862 C9.5608256 87.91421181 9.32306166 94.24711166 13.93998718 100.55718994 C18.25679011 105.64237814 23.11659628 110.1500174 27.99119568 114.69042969 C29.75266349 116.40433014 31.50941897 118.1230857 33.26167297 119.84640503 C37.86315317 124.34940509 42.5196126 128.79076761 47.19255066 133.21942139 C53.76630957 139.47032098 60.2619621 145.80250518 66.76582336 152.12594604 C70.22263567 155.48654971 73.69993663 158.82344591 77.19630432 162.14285278 C78.79355998 163.67439746 80.39072264 165.20603913 81.98777771 166.73779297 C83.06348274 167.744795 83.06348274 167.744795 84.16091919 168.7721405 C92.515807 176.83646049 98.66144623 186.89094944 99.35447693 198.67480469 C99.3778349 200.3439126 99.37867383 202.01346917 99.35838318 203.68261719 C99.34702332 204.99806519 99.34702332 204.99806519 99.33543396 206.34008789 C99.16351147 213.1134575 98.18110718 218.78639098 94.92088318 224.80761719 C94.50838318 225.57976562 94.09588318 226.35191406 93.67088318 227.14746094 C87.36647983 237.62494945 77.78843474 244.99124019 66.03733826 248.34521484 C54.59526812 250.84507421 41.02076835 249.752569 30.92088318 243.80761719 C24.7806741 239.3982989 19.41933221 234.52488455 14.23997498 229.03637695 C12.76919837 227.49969878 11.29813117 225.9632987 9.82681274 224.42713928 C8.67787568 223.22205058 8.67787568 223.22205058 7.50572777 221.99261665 C3.39404346 217.69484794 -0.7603842 213.43864418 -4.90919495 209.17675781 C-10.16615573 203.77585881 -15.40856209 198.36349722 -20.5940094 192.89379883 C-24.80732377 188.45184178 -29.06884428 184.06153667 -33.36618614 179.70088005 C-34.9841531 178.0412333 -36.58423408 176.36393573 -38.16471291 174.66855049 C-47.14686992 164.53884404 -47.14686992 164.53884404 -59.33995056 159.85983276 C-63.53889289 159.73767718 -67.59140454 160.16275206 -71.75232506 160.6745739 C-75.73190383 160.90212166 -79.46161632 160.03581912 -83.32911682 159.18261719 C-97.52263279 156.46327163 -109.86112747 158.99961617 -121.95411682 166.93261719 C-123.33247925 167.88610804 -124.70788492 168.84389999 -126.07911682 169.80761719 C-127.56411682 170.79761719 -127.56411682 170.79761719 -129.07911682 171.80761719 C-139.47411682 161.41261719 -139.47411682 161.41261719 -150.07911682 150.80761719 C-148.45817028 147.56572411 -147.57407492 146.05211936 -145.15663147 143.63116455 C-144.55936752 143.02826096 -143.96210358 142.42535736 -143.34674072 141.80418396 C-142.69317093 141.15466263 -142.03960114 140.5051413 -141.3662262 139.8359375 C-140.67664322 139.14284988 -139.98706024 138.44976227 -139.27658081 137.735672 C-136.99701431 135.4473061 -134.71021368 133.16632928 -132.42286682 130.88574219 C-130.83838588 129.29991439 -129.25420196 127.71378978 -127.67030334 126.12738037 C-124.35132288 122.80545133 -121.02875119 119.48716732 -117.70362854 116.17138672 C-113.43266896 111.91184001 -109.17077423 107.64335404 -104.91150665 103.3721199 C-101.64328602 100.09668941 -98.37033805 96.82601629 -95.09591675 93.55678558 C-93.52190124 91.98410803 -91.94938048 90.40993303 -90.37835693 88.83426666 C-88.18769674 86.63855364 -85.99077366 84.44931027 -83.79200745 82.26171875 C-83.13843765 81.60410049 -82.48486786 80.94648224 -81.81149292 80.26893616 C-77.3076465 75.80761719 -77.3076465 75.80761719 -75.07911682 75.80761719 C-74.80641464 75.20927063 -74.53371246 74.61092407 -74.25274658 73.9944458 C-73.10902072 71.86333723 -72.01314788 70.50438979 -70.30104065 68.81835938 C-69.74318375 68.26388123 -69.18532684 67.70940308 -68.61056519 67.13812256 C-68.00850754 66.54952454 -67.40644989 65.96092651 -66.78614807 65.35449219 C-66.16189438 64.73544006 -65.53764069 64.11638794 -64.89447021 63.47857666 C-62.89821712 61.50010572 -60.89542882 59.52842975 -58.89161682 57.55761719 C-56.90647916 55.60028935 -54.92288842 53.64145776 -52.94232178 51.67950439 C-51.71186004 50.46108891 -50.47873847 49.24535097 -49.24240112 48.03289795 C-45.61694121 44.44871564 -42.23334425 40.72492946 -38.90054321 36.86849976 C-33.47721202 30.73218331 -27.58416398 25.00596735 -21.81715393 19.19555664 C-20.18940626 17.55109732 -18.56706374 15.90127149 -16.94996643 14.24633789 C-14.60517108 11.84712796 -12.24466582 9.46446716 -9.87989807 7.08496094 C-8.79543144 5.96649025 -8.79543144 5.96649025 -7.6890564 4.82542419 C-7.01122604 4.15044388 -6.33339569 3.47546356 -5.63502502 2.7800293 C-5.04324966 2.18016708 -4.4514743 1.58030487 -3.84176636 0.96226501 C-2.07911682 -0.19238281 -2.07911682 -0.19238281 0 0 Z " fill="#FEBE40" transform="translate(413.07911682128906,263.1923828125)"/>
<path d="M0 0 C4.15659191 2.07829595 6.84935696 4.5754488 10.06170654 7.82119751 C10.96725639 8.72418408 10.96725639 8.72418408 11.89110017 9.6454128 C13.91493226 11.66594784 15.93152825 13.69355346 17.94824219 15.72119141 C19.39666009 17.17017337 20.84551837 18.61871523 22.29478455 20.06684875 C26.23073162 24.00222114 30.16047437 27.9437371 34.08915234 31.88636446 C38.19488224 36.0045823 42.30626258 40.11715104 46.41705322 44.23031616 C54.20182102 52.02130442 61.98147579 59.81737769 69.75931764 67.61527956 C78.61382584 76.49212913 87.47400208 85.363312 96.33466482 94.23401761 C114.56276811 112.48303572 132.78372286 130.73917748 151 149 C149.3413812 152.52344644 147.43342692 154.79901878 144.6484375 157.546875 C143.79765625 158.39121094 142.946875 159.23554688 142.0703125 160.10546875 C141.18085938 160.97816406 140.29140625 161.85085938 139.375 162.75 C138.4778125 163.63816406 137.580625 164.52632812 136.65625 165.44140625 C134.44192996 167.63216969 132.22307565 169.81812763 130 172 C129.22184937 171.39816895 129.22184937 171.39816895 128.42797852 170.78417969 C117.61593507 162.52857385 105.02553665 156.44755329 91.01806641 158.25585938 C88.10745267 158.74764102 85.20979748 159.28874459 82.32061577 159.89424324 C78.1797405 160.69504236 74.55773761 161.09617569 70.3611145 160.55245972 C62.87493159 159.63555958 56.55541886 159.40718286 50.25140381 164.01934814 C45.16547169 168.33574943 40.65779633 173.19550209 36.1171875 178.0703125 C34.40328704 179.83178031 32.68453149 181.58853579 30.96121216 183.34078979 C26.45821209 187.94226999 22.01684958 192.59872942 17.5881958 197.27166748 C11.33729621 203.8454264 5.00511201 210.34107892 -1.31832886 216.84494019 C-4.67893252 220.30175249 -8.01582873 223.77905345 -11.3352356 227.27542114 C-12.86678027 228.8726768 -14.39842194 230.46983946 -15.93017578 232.06689453 C-16.93717781 233.14259956 -16.93717781 233.14259956 -17.96452332 234.24003601 C-26.75896667 243.35135448 -37.44854889 249.25494588 -50.24291992 249.51928711 C-51.07025635 249.51292236 -51.89759277 249.50655762 -52.75 249.5 C-53.62180908 249.49427979 -54.49361816 249.48855957 -55.3918457 249.48266602 C-69.21570251 249.10345797 -79.37860266 243.08393411 -88.75 233.25 C-98.42396902 221.73122759 -99.05466337 208.33222709 -98 194 C-95.7679813 182.26173296 -87.60717708 173.06947672 -79.13696289 165.11376953 C-77.58025011 163.6226494 -76.02361819 162.13144485 -74.46705627 160.64016724 C-73.24576617 159.47877417 -73.24576617 159.47877417 -71.99980354 158.29391861 C-67.64131277 154.13556038 -63.33198609 149.9265557 -59.01367188 145.7265625 C-53.54004034 140.40852912 -48.05332086 135.10647976 -42.51342773 129.85742188 C-38.01329004 125.59098046 -33.5647015 121.27627667 -29.14544487 116.92617416 C-27.46360198 115.28851101 -25.76397482 113.66889165 -24.04612923 112.06903458 C-13.81027775 103.02546288 -13.81027775 103.02546288 -9.03878784 90.7477417 C-8.91451005 86.55802295 -9.34674459 82.51988884 -9.86343193 78.36915207 C-10.10359211 74.20290741 -9.21314313 70.25041765 -8.375 66.1875 C-5.62678054 50.9106881 -8.86196296 38.62441625 -17.6328125 25.9453125 C-18.08398438 25.30335938 -18.53515625 24.66140625 -19 24 C-19.99 22.515 -19.99 22.515 -21 21 C-14.07 14.07 -7.14 7.14 0 0 Z " fill="#FEBE40" transform="translate(98,263)"/>
<path d="M0 0 C-3.79694884 4.53386976 -7.71597853 8.86039654 -11.90763664 13.03068447 C-12.4734114 13.59761307 -13.03918615 14.16454167 -13.6221056 14.74864992 C-15.50823433 16.63741407 -17.39789191 18.52260624 -19.28756714 20.40782166 C-20.6582678 21.77895865 -22.02874859 23.15031549 -23.3990289 24.52187258 C-27.15715032 28.2822268 -30.91837725 32.03946122 -34.68012333 35.79618895 C-38.73912674 39.85087062 -42.79523644 43.90844521 -46.85169983 47.96566772 C-53.87757608 54.99206812 -60.90527975 62.01663644 -67.9342308 69.03996086 C-78.09689063 79.19449082 -88.25678534 89.35178365 -98.41600908 99.50975115 C-114.8990816 115.99063548 -131.38438136 132.46929009 -147.87109375 148.9465332 C-163.88561579 164.9518678 -179.89908485 180.95825472 -195.91113281 196.96606445 C-196.40487616 197.45967628 -196.89861951 197.9532881 -197.40732478 198.46185786 C-202.3657919 203.41900643 -207.32423765 208.37617637 -212.28266775 213.33336197 C-253.85188229 254.89213915 -295.42469837 296.44731234 -337 338 C-338.10146846 337.06518608 -339.20159002 336.12878502 -340.30116272 335.19174194 C-340.91394105 334.67045904 -341.52671938 334.14917614 -342.15806675 333.61209679 C-345.02071428 331.10665047 -347.69518224 328.42840608 -350.37109375 325.7265625 C-350.93828629 325.15795502 -351.50547882 324.58934753 -352.08985901 324.00350952 C-353.87479913 322.21303764 -355.65620256 320.41909516 -357.4375 318.625 C-358.65796939 317.39950677 -359.87867053 316.17424428 -361.09960938 314.94921875 C-364.06908756 311.96880226 -367.03540257 308.98527106 -370 306 C-365.07162095 300.05899542 -359.75147395 294.60616051 -354.2890625 289.15625 C-353.36209564 288.22832642 -352.43512878 287.30040283 -351.48007202 286.34436035 C-349.52674475 284.38956748 -347.57164326 282.43657184 -345.61523438 280.48486328 C-343.12860367 278.00392118 -340.64648041 275.51852579 -338.16568947 273.03174591 C-335.77175941 270.63329754 -333.37398713 268.23870533 -330.9765625 265.84375 C-330.0961026 264.96126587 -329.2156427 264.07878174 -328.3085022 263.16955566 C-324.68461846 259.5592559 -321.06567179 255.9991378 -317.17553711 252.67553711 C-311.22202483 247.55358791 -305.75934213 241.90298921 -300.21484375 236.34765625 C-298.98765878 235.12114646 -297.76032553 233.89478502 -296.53285217 232.66856384 C-293.97201619 230.10919472 -291.41297829 227.54804507 -288.85522461 224.9855957 C-285.59522046 221.71989492 -282.33074635 218.45870525 -279.06490231 215.19884586 C-276.53303715 212.67061373 -274.00358256 210.13998061 -271.47482491 207.60864067 C-270.27281401 206.40596808 -269.07007481 205.20402291 -267.86655998 204.0028553 C-266.17804226 202.31690946 -264.49281716 200.62773542 -262.80834961 198.93774414 C-262.07949051 198.21192139 -262.07949051 198.21192139 -261.33590698 197.47143555 C-258.69299421 194.81264108 -256.1822853 192.07988223 -253.73670292 189.23796463 C-250.3890318 185.40026557 -246.89943167 181.75111665 -243.29882812 178.1516571 C-242.66231292 177.51146521 -242.02579771 176.87127331 -241.36999416 176.21168166 C-239.25942144 174.09019088 -237.14537309 171.97220036 -235.03125 169.85424805 C-233.50759453 168.32431897 -231.98412642 166.79420328 -230.46083069 165.26391602 C-225.47746282 160.25961319 -220.48885605 155.26054932 -215.5 150.26171875 C-213.77575468 148.53342201 -212.0515422 146.8050925 -210.32736206 145.07673073 C-202.22425241 136.95459313 -194.11874923 128.83485355 -186.01029491 120.71805161 C-176.68139749 111.37938865 -167.36083274 102.03251179 -158.04728508 92.67854089 C-150.82687116 85.42787644 -143.59871186 78.18499125 -136.36480904 70.94778472 C-132.05419025 66.63482588 -127.74687723 62.31868852 -123.44775391 57.99426842 C-119.3985162 53.92158796 -115.33966512 49.85873049 -111.27358818 45.80286407 C-109.79282146 44.32258888 -108.31539784 42.83895969 -106.84181404 41.35153389 C-88.7170187 23.06621462 -69.90207366 10.12726481 -45 3 C-43.30617188 2.48759766 -43.30617188 2.48759766 -41.578125 1.96484375 C-28.17188902 -1.41818528 -13.72310706 -0.25968034 0 0 Z " fill="#F2F4F8" transform="translate(512,0)"/>
<path d="M0 0 C31.8895501 -0.62629291 31.8895501 -0.62629291 44 3 C45.04341553 3.29801514 45.04341553 3.29801514 46.10791016 3.60205078 C74.57418347 11.82947552 93.95613587 29.78951368 114.45556641 50.34204102 C115.99375267 51.88050981 117.53216008 53.41875753 119.07077026 54.95680237 C123.22104747 59.10679417 127.36824716 63.25984886 131.5148778 67.41348386 C135.85857115 71.76345373 140.20512085 76.11056764 144.55136108 80.45799255 C152.76954198 88.67927413 160.98517172 96.90310017 169.19987524 105.12785619 C178.55707371 114.49625512 187.91713207 123.8617945 197.27742505 133.22710145 C216.5214546 152.48156677 235.76191163 171.73959868 255 191 C253.64031134 193.81891075 252.35706804 195.89473943 250.14257812 198.11621094 C249.56858276 198.69651062 248.9945874 199.2768103 248.40319824 199.87469482 C247.47658386 200.79523651 247.47658386 200.79523651 246.53125 201.734375 C245.89513794 202.37240051 245.25902588 203.01042603 244.6036377 203.66778564 C243.26116613 205.01161574 241.91617539 206.35293329 240.56884766 207.69189453 C238.50057835 209.74942465 236.44322672 211.81744049 234.38671875 213.88671875 C233.08137029 215.19074625 231.7754019 216.49415356 230.46875 217.796875 C229.85100708 218.41866638 229.23326416 219.04045776 228.59680176 219.68109131 C224.22993073 224 224.22993073 224 222 224 C220.58998483 222.57053846 220.58998483 222.57053846 218.93775082 220.56984615 C214.84981254 215.76732626 210.46355213 211.33034844 205.99598694 206.88246155 C204.67006984 205.55632116 204.67006984 205.55632116 203.31736654 204.20339006 C200.88408018 201.76981041 198.44770971 199.33933972 196.01079786 196.90939128 C193.37578966 194.28079255 190.74371748 191.64925676 188.11129761 189.01806641 C183.55669038 184.46633748 179.00031389 179.91638599 174.44276619 175.36760139 C167.85291731 168.79033072 161.26633012 162.20980136 154.68061917 155.62838774 C143.9935084 144.94833365 133.3045299 134.27015111 122.61401367 123.59350586 C121.97499001 122.95531001 121.33596634 122.31711415 120.67757832 121.65957903 C116.13926713 117.12717104 111.60088961 112.59482947 107.0625 108.0625 C101.86608062 102.8730145 96.66969578 97.68349441 91.47338867 92.49389648 C90.83302369 91.85435963 90.1926587 91.21482277 89.53288872 90.55590601 C78.87262526 79.90930704 68.2143094 69.26076043 57.55739301 58.61081117 C50.9832075 52.04111466 44.40724406 45.47320726 37.82900577 38.90756875 C33.33001037 34.41697073 28.83275871 29.92463157 24.33690251 25.43089069 C21.73971829 22.83505705 19.14169445 20.2400775 16.54150581 17.64725304 C13.73004138 14.8437217 10.92238909 12.03639314 8.11512756 9.22865295 C7.28334852 8.40046887 6.45156947 7.57228479 5.594585 6.71900421 C4.84997184 5.97301671 4.10535869 5.2270292 3.3381815 4.45843601 C2.68885704 3.81003335 2.03953258 3.16163068 1.37053162 2.49357945 C0 1 0 1 0 0 Z " fill="#CFD7E6" transform="translate(1,0)"/>
<path d="M0 0 C5.02082277 4.21262524 9.75793185 8.60019467 14.40063477 13.22363281 C15.45572739 14.26886864 15.45572739 14.26886864 16.53213501 15.33522034 C18.83811477 17.62163324 21.14018928 19.91191903 23.44140625 22.203125 C24.23287489 22.99051811 25.02434353 23.77791122 25.83979607 24.58916473 C30.02531739 28.75390055 34.20760619 32.9218528 38.38745117 37.09228516 C42.6883156 41.38207431 47.00073096 45.66005433 51.31584263 49.93550491 C54.64865995 53.24210708 57.97249363 56.5576316 61.2940197 59.8755722 C62.87936526 61.45606809 64.46806839 63.03320397 66.06027412 64.60678864 C68.29271056 66.81472032 70.51201197 69.03512099 72.72875977 71.25878906 C73.37879471 71.89601395 74.02882965 72.53323883 74.69856262 73.18977356 C83.50221893 82.09325753 89.29122434 92.69378997 89.46826172 105.34448242 C89.45811035 106.17955322 89.44795898 107.01462402 89.4375 107.875 C89.42614014 109.190448 89.42614014 109.190448 89.41455078 110.5324707 C89.24262829 117.30584031 88.260224 122.97877379 85 129 C84.5875 129.77214844 84.175 130.54429687 83.75 131.33984375 C77.44559665 141.81733227 67.86755156 149.183623 56.11645508 152.53759766 C44.67438494 155.03745702 31.09988517 153.94495182 21 148 C14.84838331 143.55416383 9.34525611 138.63593842 4.00170898 133.26049805 C2.88783058 132.1518766 2.88783058 132.1518766 1.75144958 131.02085876 C-0.67201647 128.60611021 -3.0881944 126.18422267 -5.50390625 123.76171875 C-7.1946899 122.07228361 -8.88577024 120.38314535 -10.57713318 118.69429016 C-14.10456628 115.1697939 -17.6283852 111.64173439 -21.1496582 108.11108398 C-25.67247443 103.57681267 -30.20429298 99.05166143 -34.738801 94.52908611 C-38.22438853 91.05070385 -41.70522561 87.56759939 -45.18461418 84.08301735 C-46.85498024 82.41131427 -48.52684111 80.74110347 -50.20019722 79.07239342 C-52.52707827 76.75056225 -54.84750141 74.42246851 -57.16625977 72.0925293 C-57.86277649 71.40006104 -58.55929321 70.70759277 -59.2769165 69.99414062 C-59.90338577 69.36203171 -60.52985504 68.72992279 -61.17530823 68.07865906 C-61.72406899 67.52914424 -62.27282976 66.97962942 -62.83821964 66.41346264 C-64 65 -64 65 -64 63 C-63.030625 62.8040625 -62.06125 62.608125 -61.0625 62.40625 C-40.86722384 58.02437608 -23.92960494 48.32955869 -12 31 C-6.09288681 21.19847952 -2.88623467 10.98631262 0 0 Z " fill="#1E2533" transform="translate(423,359)"/>
<path d="M0 0 C2.79974475 2.79974475 3.21038483 6.08734934 4.1875 9.8125 C9.43378902 28.5137453 20.67703665 44.45668842 37.73046875 54.1953125 C46.50336443 58.93243915 55.2685751 61.87474629 65 64 C60.78737476 69.02082277 56.39980533 73.75793185 51.77636719 78.40063477 C51.0795433 79.10402985 50.38271942 79.80742493 49.66477966 80.53213501 C47.37836676 82.83811477 45.08808097 85.14018928 42.796875 87.44140625 C42.00948189 88.23287489 41.22208878 89.02434353 40.41083527 89.83979607 C36.24609945 94.02531739 32.0781472 98.20760619 27.90771484 102.38745117 C23.61792569 106.6883156 19.33994567 111.00073096 15.06449509 115.31584263 C11.75789292 118.64865995 8.4423684 121.97249363 5.1244278 125.2940197 C3.54393191 126.87936526 1.96679603 128.46806839 0.39321136 130.06027412 C-1.81472032 132.29271056 -4.03512099 134.51201197 -6.25878906 136.72875977 C-6.89601395 137.37879471 -7.53323883 138.02882965 -8.18977356 138.69856262 C-17.0521647 147.46158683 -27.65069068 153.25912228 -40.24291992 153.51928711 C-41.07025635 153.51292236 -41.89759277 153.50655762 -42.75 153.5 C-43.62180908 153.49427979 -44.49361816 153.48855957 -45.3918457 153.48266602 C-59.21570251 153.10345797 -69.37860266 147.08393411 -78.75 137.25 C-88.42396902 125.73122759 -89.05466337 112.33222709 -88 98 C-85.75856757 86.21222583 -77.44862965 76.97903354 -69.13696289 68.79638672 C-68.38491577 68.04390152 -67.63286865 67.29141632 -66.85803223 66.51612854 C-64.40329301 64.0634572 -61.93814643 61.62154721 -59.47265625 59.1796875 C-57.75564516 57.46827947 -56.03930102 55.75620207 -54.32359314 54.04348755 C-49.83070772 49.56199489 -45.32888326 45.08958953 -40.82507324 40.61907959 C-36.22099887 36.04582654 -31.62552416 31.4639496 -27.02929688 26.8828125 C-18.02788099 17.91346242 -9.01727778 8.95340186 0 0 Z " fill="#505765" transform="translate(88,359)"/>
<path d="M0 0 C4.17358658 2.21429195 7.05307883 4.99202542 10.13183594 8.50073242 C18.3847633 17.65776608 27.16288515 26.28742665 35.890625 34.98828125 C37.68973409 36.78552103 39.4886194 38.58298487 41.28729248 40.38066101 C45.50307933 44.5930478 49.72108201 48.80320684 53.94021869 53.01223773 C58.75258124 57.81332942 63.56202276 62.61734287 68.37125063 67.42157423 C78.24430946 77.28424777 88.12093488 87.143343 98 97 C92.45042252 102.61447816 92.45042252 102.61447816 89.25 104.625 C88.65703125 105.00914062 88.0640625 105.39328125 87.453125 105.7890625 C80.49377008 109.22441286 73.98550454 110.55950968 66.25 110.5 C65.37819092 110.49427979 64.50638184 110.48855957 63.6081543 110.48266602 C47.38982504 110.03777419 36.97443076 101.2987111 26.00170898 90.26049805 C24.88783058 89.1518766 24.88783058 89.1518766 23.75144958 88.02085876 C21.32798353 85.60611021 18.9118056 83.18422267 16.49609375 80.76171875 C14.8053101 79.07228361 13.11422976 77.38314535 11.42286682 75.69429016 C7.89543372 72.1697939 4.3716148 68.64173439 0.8503418 65.11108398 C-3.67247443 60.57681267 -8.20429298 56.05166143 -12.738801 51.52908611 C-16.22438853 48.05070385 -19.70522561 44.56759939 -23.18461418 41.08301735 C-24.85498024 39.41131427 -26.52684111 37.74110347 -28.20019722 36.07239342 C-30.52707827 33.75056225 -32.84750141 31.42246851 -35.16625977 29.0925293 C-35.86277649 28.40006104 -36.55929321 27.70759277 -37.2769165 26.99414062 C-37.90338577 26.36203171 -38.52985504 25.72992279 -39.17530823 25.07865906 C-39.99844938 24.25438683 -39.99844938 24.25438683 -40.83821964 23.41346264 C-42 22 -42 22 -42 20 C-41.030625 19.8040625 -40.06125 19.608125 -39.0625 19.40625 C-24.16686972 16.17279916 -11.39512028 10.29943564 0 0 Z " fill="#353D4C" transform="translate(401,402)"/>
<path d="M0 0 C3.3239974 1.5088191 5.99283241 3.4579813 8.875 5.6875 C19.83509696 13.69680163 30.91025822 18.04839156 44 21 C39.78737476 26.02082277 35.39980533 30.75793185 30.77636719 35.40063477 C30.0795433 36.10402985 29.38271942 36.80742493 28.66477966 37.53213501 C26.37836676 39.83811477 24.08808097 42.14018928 21.796875 44.44140625 C21.00948189 45.23287489 20.22208878 46.02434353 19.41083527 46.83979607 C15.24609945 51.02531739 11.0781472 55.20760619 6.90771484 59.38745117 C2.61792569 63.6883156 -1.66005433 68.00073096 -5.93550491 72.31584263 C-9.24210708 75.64865995 -12.5576316 78.97249363 -15.8755722 82.2940197 C-17.45606809 83.87936526 -19.03320397 85.46806839 -20.60678864 87.06027412 C-22.81472032 89.29271056 -25.03512099 91.51201197 -27.25878906 93.72875977 C-27.89601395 94.37879471 -28.53323883 95.02882965 -29.18977356 95.69856262 C-38.05179093 104.46121726 -48.65108585 110.26016392 -61.24316406 110.51904297 C-62.07041992 110.51275879 -62.89767578 110.50647461 -63.75 110.5 C-64.62108398 110.49500488 -65.49216797 110.49000977 -66.38964844 110.48486328 C-77.55328946 110.18565294 -86.57130621 106.41012052 -95 99 C-94.41557635 95.62584603 -93.36483394 93.99231974 -90.95220947 91.59144592 C-90.30175659 90.93686905 -89.65130371 90.28229218 -88.98114014 89.60787964 C-88.26323303 88.90075836 -87.54532593 88.19363708 -86.80566406 87.46508789 C-86.052771 86.71175674 -85.29987793 85.9584256 -84.52416992 85.18226624 C-82.02836535 82.68855488 -79.5220911 80.20564759 -77.015625 77.72265625 C-75.2795995 75.99222752 -73.54423634 74.26113408 -71.80950928 72.52940369 C-67.23457303 67.9659323 -62.65070681 63.41153351 -58.06494141 58.85894775 C-53.41032806 54.23491437 -48.76408831 49.60248484 -44.1171875 44.97070312 C-36.60409283 37.48399914 -29.08582614 30.00253597 -21.56097412 22.52764893 C-18.03462513 19.02440357 -14.51419441 15.51544713 -11 12 C-10.12859375 11.14019531 -9.2571875 10.28039062 -8.359375 9.39453125 C-7.49828125 8.54246094 -6.6371875 7.69039063 -5.75 6.8125 C-4.87859375 5.95269531 -4.0071875 5.09289062 -3.109375 4.20703125 C-0.97005762 2.18568934 -0.97005762 2.18568934 0 0 Z " fill="#353D4D" transform="translate(109,402)"/>
<path d="M0 0 C3.70649661 0.43929309 5.43021607 2.04240192 8.05004883 4.63012695 C8.83378372 5.39794998 9.61751862 6.16577301 10.42500305 6.9568634 C11.26057236 7.79223129 12.09614166 8.62759918 12.95703125 9.48828125 C13.81938889 10.34302536 14.68174652 11.19776947 15.57023621 12.07841492 C17.39045665 13.88782852 19.20671169 15.70123862 21.01928711 17.51831055 C23.80511263 20.30511005 26.6115703 23.06990917 29.41992188 25.83398438 C31.1835908 27.59244799 32.94600442 29.3521717 34.70703125 31.11328125 C35.97556694 32.35722404 35.97556694 32.35722404 37.26972961 33.626297 C38.0377037 34.40357651 38.8056778 35.18085602 39.59692383 35.98168945 C40.27991043 36.66262161 40.96289703 37.34355377 41.6665802 38.04512024 C43 40 43 40 42.85429382 42.11686707 C39.58246999 49.32899836 27.45146888 54.72392627 20.59765625 57.6484375 C3.97019728 63.89501818 -10.61903762 65.74898587 -28.125 62.375 C-41.33782595 59.83412718 -53.39478835 61.69040132 -64.9375 68.8125 C-65.9584375 69.4003125 -65.9584375 69.4003125 -67 70 C-67.66 69.67 -68.32 69.34 -69 69 C-60.08729078 59.9716251 -51.16125992 50.95666001 -42.21780014 41.95873928 C-38.06575686 37.78056225 -33.91850816 33.59784502 -29.78173828 29.40454102 C-25.79206172 25.36068182 -21.79042252 21.32903048 -17.78006744 17.30568123 C-16.24942649 15.76577583 -14.72320545 14.22146448 -13.2014389 12.67278862 C-11.07506142 10.51030626 -8.93374206 8.36378931 -6.78808594 6.22045898 C-6.15726608 5.57166275 -5.52644623 4.92286652 -4.87651062 4.25440979 C-3.1005249 2.49925232 -3.1005249 2.49925232 0 0 Z " fill="#FEDE3F" transform="translate(358,360)"/>
<path d="M0 0 C4.72466617 3.95396055 9.22172139 8.06178504 13.59375 12.40087891 C14.21085342 13.00980484 14.82795685 13.61873077 15.46376038 14.24610901 C17.47882151 16.23660751 19.48994274 18.23101164 21.5 20.2265625 C22.18988007 20.91111889 22.87976013 21.59567528 23.59054565 22.3009758 C27.23006864 25.91391522 30.86600939 29.53042041 34.49951172 33.14941406 C37.50727326 36.14375795 40.52216758 39.1306354 43.54345703 42.11132812 C47.20001388 45.71877054 50.84433365 49.33814431 54.47998047 52.96665573 C55.8665033 54.34644558 57.25729326 55.72196092 58.65234375 57.0931282 C60.59387093 59.00325273 62.5192573 60.92831456 64.44140625 62.85791016 C65.02310074 63.42319931 65.60479523 63.98848846 66.20411682 64.57090759 C67.77563477 66.16763306 67.77563477 66.16763306 70 69 C69.53563606 73.46544824 66.52339728 75.84717502 63.4375 78.8125 C62.93669922 79.30814453 62.43589844 79.80378906 61.91992188 80.31445312 C59.11628585 83.06152146 56.23254035 85.67851234 53.25390625 88.234375 C48.08710703 92.71688732 43.31164561 97.58039553 38.5 102.4375 C37.5821875 103.35982422 36.664375 104.28214844 35.71875 105.23242188 C33.47684945 107.48599899 31.237334 109.74189075 29 112 C20.90915694 108.3780413 15.43268433 97.01277895 12.12890625 89.046875 C11.75636719 88.04140625 11.38382813 87.0359375 11 86 C10.77296387 85.39736328 10.54592773 84.79472656 10.31201172 84.17382812 C4.88888447 69.37481422 4.83469138 55.64416221 7.625 40.25 C10.21442866 25.95764195 7.48510475 14.35042284 0 2 C0 1.34 0 0.68 0 0 Z " fill="#FEDE40" transform="translate(82,289)"/>
<path d="M0 0 C2.84037087 1.1942071 4.53601797 3.08842764 6.68650818 5.28027344 C7.5759613 6.17939453 8.46541443 7.07851563 9.38182068 8.00488281 C10.3022113 8.95041016 11.22260193 9.8959375 12.17088318 10.87011719 C13.1154999 11.82978692 14.06080513 12.78877947 15.00682068 13.74707031 C17.3183749 16.09400547 19.62264658 18.44765109 21.92088318 20.80761719 C19.73109605 23.81857449 17.40993519 26.32379075 14.58103943 28.71606445 C7.81155737 34.51456695 1.64437499 40.96170385 -4.64161682 47.27246094 C-6.04243898 48.6751511 -7.44348425 50.07761847 -8.84474182 51.47987366 C-12.50966569 55.14859258 -16.1715749 58.82030597 -19.83283997 62.49267578 C-23.57846188 66.24857696 -27.32696095 70.0016043 -31.07521057 73.75488281 C-38.41264635 81.10300272 -45.74689687 88.45429298 -53.07911682 95.80761719 C-56.5039439 94.18985602 -58.73602204 92.38418475 -61.40724182 89.67480469 C-62.20646057 88.86914062 -63.00567932 88.06347656 -63.82911682 87.23339844 C-64.65411682 86.39164062 -65.47911682 85.54988281 -66.32911682 84.68261719 C-67.16958557 83.833125 -68.01005432 82.98363281 -68.87599182 82.10839844 C-70.94827365 80.01256795 -73.01574075 77.91221005 -75.07911682 75.80761719 C-73.80341078 73.00854047 -72.48994903 70.97392887 -70.30104065 68.81835938 C-69.74318375 68.26388123 -69.18532684 67.70940308 -68.61056519 67.13812256 C-68.00850754 66.54952454 -67.40644989 65.96092651 -66.78614807 65.35449219 C-66.16189438 64.73544006 -65.53764069 64.11638794 -64.89447021 63.47857666 C-62.89821712 61.50010572 -60.89542882 59.52842975 -58.89161682 57.55761719 C-56.90647916 55.60028935 -54.92288842 53.64145776 -52.94232178 51.67950439 C-51.71186004 50.46108891 -50.47873847 49.24535097 -49.24240112 48.03289795 C-45.61694121 44.44871564 -42.23334425 40.72492946 -38.90054321 36.86849976 C-33.47721202 30.73218331 -27.58416398 25.00596735 -21.81715393 19.19555664 C-20.18940626 17.55109732 -18.56706374 15.90127149 -16.94996643 14.24633789 C-14.60517108 11.84712796 -12.24466582 9.46446716 -9.87989807 7.08496094 C-9.15692032 6.33931381 -8.43394257 5.59366669 -7.6890564 4.82542419 C-7.01122604 4.15044388 -6.33339569 3.47546356 -5.63502502 2.7800293 C-5.04324966 2.18016708 -4.4514743 1.58030487 -3.84176636 0.96226501 C-2.07911682 -0.19238281 -2.07911682 -0.19238281 0 0 Z " fill="#FFA03F" transform="translate(413.07911682128906,263.1923828125)"/>
<path d="M0 0 C2.90297734 1.31365937 4.96908109 2.72072123 7.2144165 4.97390747 C7.82573425 5.58247589 8.437052 6.19104431 9.06689453 6.8180542 C9.7257666 7.48411682 10.38463867 8.15017944 11.06347656 8.83642578 C12.11773834 9.89024948 12.11773834 9.89024948 13.19329834 10.96536255 C15.51384625 13.28730311 17.8272308 15.61624628 20.140625 17.9453125 C21.74872947 19.55714732 23.35727625 21.16854097 24.96624756 22.7795105 C29.19897265 27.01987029 33.42565715 31.26620206 37.65112305 35.51379395 C41.96431271 39.84744543 46.28317249 44.17543788 50.6015625 48.50390625 C59.07327591 56.99706673 67.53862033 65.49654528 76 74 C74.3413812 77.52344644 72.43342692 79.79901878 69.6484375 82.546875 C68.79765625 83.39121094 67.946875 84.23554688 67.0703125 85.10546875 C65.73613281 86.41451172 65.73613281 86.41451172 64.375 87.75 C63.4778125 88.63816406 62.580625 89.52632813 61.65625 90.44140625 C59.44192996 92.63216969 57.22307565 94.81812763 55 97 C51.9890427 94.81021287 49.48382643 92.48905201 47.09155273 89.66015625 C41.29305024 82.89067419 34.84591334 76.72349181 28.53515625 70.4375 C27.13246609 69.03667785 25.72999872 67.63563257 24.32774353 66.234375 C20.6590246 62.56945113 16.98731122 58.90754192 13.31494141 55.24627686 C9.55904022 51.50065494 5.80601289 47.75215587 2.05273438 44.00390625 C-5.29538554 36.66647047 -12.6466758 29.33221995 -20 22 C-18.38223883 18.57517293 -16.57656756 16.34309478 -13.8671875 13.671875 C-12.65869141 12.47304688 -12.65869141 12.47304688 -11.42578125 11.25 C-10.58402344 10.425 -9.74226562 9.6 -8.875 8.75 C-8.02550781 7.90953125 -7.17601562 7.0690625 -6.30078125 6.203125 C-4.20495077 4.13084317 -2.10459287 2.06337607 0 0 Z " fill="#FE9F40" transform="translate(173,338)"/>
<path d="M0 0 C2.90988017 1.27689276 4.64185418 3.09857024 6.87954712 5.35430908 C7.56805 6.04215485 7.56805 6.04215485 8.27046204 6.74389648 C9.78181943 8.25733945 11.28228033 9.7811207 12.78286743 11.30523682 C13.83024603 12.35821219 14.87829012 13.410526 15.92697144 14.46220398 C18.68235538 17.22903026 21.42861067 20.00474766 24.17306519 22.78240967 C26.97634625 25.61640468 29.78816237 28.44190309 32.59927368 31.26812744 C38.1115714 36.81257852 43.61425348 42.36644966 49.11099243 47.92633057 C45.29603956 52.48660104 41.35142786 56.82634051 37.12661743 61.00836182 C36.3141153 61.81874153 36.3141153 61.81874153 35.48519897 62.64549255 C33.77949647 64.34566826 32.0703283 66.04230867 30.36099243 67.73883057 C29.20060259 68.89419497 28.04044442 70.04979209 26.88052368 71.20562744 C24.76769016 73.31033703 22.65361285 75.41377748 20.53775024 77.51544189 C19.05998298 78.98354569 17.58393589 80.45338711 16.11099243 81.92633057 C15.70821579 81.19823685 15.30543915 80.47014313 14.89045715 79.71998596 C13.04427609 76.82158982 11.07370408 74.64835475 8.63955688 72.22784424 C7.73884964 71.32728806 6.8381424 70.42673187 5.91014099 69.49888611 C4.93162582 68.5305821 3.95300083 67.56238907 2.97427368 66.59429932 C1.96921333 65.59297276 0.96459634 64.59120101 -0.03959656 63.58900452 C-2.67375672 60.96245196 -5.31386901 58.34196334 -7.95529175 55.72271729 C-10.65363431 53.04489521 -13.34626898 50.36134705 -16.03939819 47.67828369 C-21.31705026 42.42203082 -26.60100731 37.1721748 -31.88900757 31.92633057 C-30.61570168 29.14672382 -29.29072248 27.06889761 -27.15512085 24.88604736 C-26.60760162 24.32254074 -26.0600824 23.75903412 -25.49597168 23.17845154 C-24.90637665 22.5834938 -24.31678162 21.98853607 -23.70932007 21.37554932 C-23.1001474 20.75734818 -22.49097473 20.13914703 -21.86334229 19.50221252 C-20.57662084 18.20101215 -19.28709394 16.90258082 -17.9949646 15.60675049 C-16.01572831 13.6155617 -14.05590871 11.60648249 -12.09603882 9.59625244 C-10.84328461 8.33404028 -9.58941567 7.07293331 -8.33432007 5.81304932 C-7.7487735 5.20797043 -7.16322693 4.60289154 -6.55993652 3.97947693 C-2.44008687 -0.09516098 -2.44008687 -0.09516098 0 0 Z " fill="#CFD7E6" transform="translate(320.8890075683594,257.07366943359375)"/>
<path d="M0 0 C10.23 0 20.46 0 31 0 C31 30.36 31 60.72 31 92 C21.1 92 11.2 92 1 92 C-0.844719 90.155281 -0.1200219 87.55483588 -0.12442017 85.1006012 C-0.12082489 84.25327927 -0.11722961 83.40595734 -0.11352539 82.53295898 C-0.11367142 81.64523804 -0.11381744 80.75751709 -0.1139679 79.84289551 C-0.11326843 76.89393716 -0.10547448 73.94504113 -0.09765625 70.99609375 C-0.09579219 68.95728083 -0.09436823 66.91846746 -0.09336853 64.87965393 C-0.08954241 59.50215426 -0.07971132 54.12468142 -0.06866455 48.74719238 C-0.05845245 43.26440799 -0.05387134 37.78161928 -0.04882812 32.29882812 C-0.03808914 21.53253838 -0.02049158 10.76627561 0 0 Z " fill="#FFE03F" transform="translate(240,0)"/>
<path d="M0 0 C3.52344644 1.6586188 5.79901878 3.56657308 8.546875 6.3515625 C9.39121094 7.20234375 10.23554688 8.053125 11.10546875 8.9296875 C12.41451172 10.26386719 12.41451172 10.26386719 13.75 11.625 C14.63816406 12.5221875 15.52632813 13.419375 16.44140625 14.34375 C18.63216969 16.55807004 20.81812763 18.77692435 23 21 C17.31978209 27.94103433 10.94998244 34.17673906 4.6015625 40.49609375 C3.39922532 41.69656287 2.19711095 42.89725518 0.99520874 44.09815979 C-2.14909163 47.23866548 -5.29638479 50.37615481 -8.44433594 53.51300049 C-11.66394173 56.72232618 -14.88067321 59.93453005 -18.09765625 63.14648438 C-24.39564635 69.43379102 -30.69680565 75.71791106 -37 82 C-42.4040787 79.43447679 -46.10029971 75.30774435 -50.3125 71.125 C-51.16134766 70.30902344 -52.01019531 69.49304688 -52.88476562 68.65234375 C-54.08069336 67.46705078 -54.08069336 67.46705078 -55.30078125 66.2578125 C-56.03466064 65.5373877 -56.76854004 64.81696289 -57.5246582 64.07470703 C-59 62 -59 62 -58.93206787 60.23147583 C-57.54276772 56.90533423 -55.09529762 54.70400947 -52.56225586 52.22167969 C-51.99640274 51.65538849 -51.43054962 51.08909729 -50.84754944 50.50564575 C-48.97700443 48.63718936 -47.09606074 46.77958101 -45.21484375 44.921875 C-43.91524591 43.62787283 -42.6163092 42.33320636 -41.31800842 41.03790283 C-37.90016715 37.63151249 -34.47341237 34.2342274 -31.04473877 30.83874512 C-27.54719606 27.37189771 -24.05813702 23.89653563 -20.56835938 20.421875 C-13.72052726 13.60621145 -6.86325073 6.80013457 0 0 Z " fill="#FFBE40" transform="translate(357,5)"/>
<path d="M0 0 C3.99464445 1.61076347 6.70825624 4.40568558 9.70239258 7.39599609 C10.2605365 7.9458165 10.81868042 8.4956369 11.39373779 9.06211853 C13.23280111 10.87712859 15.06415396 12.69967071 16.89453125 14.5234375 C18.16908733 15.78902784 19.44372119 17.05453986 20.71842957 18.31997681 C23.3859229 20.97099324 26.04900214 23.62636088 28.7097168 26.28417969 C32.12576244 29.69482503 35.55769156 33.08899983 38.99374866 36.47946739 C41.62977029 39.08581288 44.25453266 41.70327414 46.87625694 44.32399368 C48.13731492 45.58083509 49.40251019 46.83353909 50.6718235 48.08204269 C52.44140199 49.82488755 54.19462363 51.58269959 55.94458008 53.34521484 C56.47488327 53.86068375 57.00518646 54.37615265 57.55155945 54.90724182 C58.98323059 56.36849976 58.98323059 56.36849976 61 59 C60.87835353 62.96826521 58.49336561 64.8541847 55.74609375 67.546875 C54.89208984 68.39121094 54.03808594 69.23554687 53.15820312 70.10546875 C52.26037109 70.97816406 51.36253906 71.85085937 50.4375 72.75 C49.53580078 73.63816406 48.63410156 74.52632813 47.70507812 75.44140625 C45.47662902 77.63448315 43.24148407 79.82026044 41 82 C36.94397286 80.38376737 34.23044472 77.49847324 31.22167969 74.44873047 C30.65538849 73.88273132 30.08909729 73.31673218 29.50564575 72.73358154 C27.63960762 70.8661528 25.78074904 68.99174538 23.921875 67.1171875 C22.62765446 65.81923589 21.33299095 64.52172584 20.03790283 63.22463989 C16.63374354 59.81285164 13.23563366 56.39509948 9.83874512 52.97607422 C6.37008593 49.4869408 2.89574417 46.00347613 -0.578125 42.51953125 C-7.39099302 35.68522632 -14.1974842 28.84460797 -21 22 C-17.81597912 18.23327844 -14.63838094 14.50997409 -11.1328125 11.03515625 C-10.47539062 10.38095703 -9.81796875 9.72675781 -9.140625 9.05273438 C-8.47546875 8.39595703 -7.8103125 7.73917969 -7.125 7.0625 C-6.43664062 6.37865234 -5.74828125 5.69480469 -5.0390625 4.99023438 C-3.36166489 3.32448536 -1.68196209 1.6611378 0 0 Z " fill="#FFDF3F" transform="translate(153,5)"/>
<path d="M0 0 C4.95 0 9.9 0 15 0 C15 30.03 15 60.06 15 91 C10.05 91 5.1 91 0 91 C0 60.97 0 30.94 0 0 Z " fill="#FFBE3F" transform="translate(256,0)"/>
<path d="M0 0 C0.99 0.33 1.98 0.66 3 1 C-14.49 18.49 -31.98 35.98 -50 54 C-50.66 53.67 -51.32 53.34 -52 53 C-51.09757568 52.1028125 -50.19515137 51.205625 -49.26538086 50.28125 C-45.88761614 46.92171518 -42.51326835 43.55876556 -39.13989258 40.19482422 C-37.68507983 38.74501083 -36.22936717 37.29609983 -34.77270508 35.84814453 C-32.66765449 33.75535357 -30.56596381 31.65923626 -28.46484375 29.5625 C-27.82288559 28.92570312 -27.18092743 28.28890625 -26.51951599 27.6328125 C-22.69085879 23.80462164 -19.06929102 19.85364705 -15.53050232 15.75634766 C-13.83954426 13.81586695 -12.08247622 11.96740501 -10.25390625 10.15625 C-9.64482422 9.55039062 -9.03574219 8.94453125 -8.40820312 8.3203125 C-7.79912109 7.71960938 -7.19003906 7.11890625 -6.5625 6.5 C-5.92634766 5.86835938 -5.29019531 5.23671875 -4.63476562 4.5859375 C-3.09217194 3.05494226 -1.54642686 1.52712333 0 0 Z " fill="#FCB13E" transform="translate(390,284)"/>
</svg>
