<?xml version="1.0" encoding="UTF-8"?>
<svg version="1.1" xmlns="http://www.w3.org/2000/svg" width="512" height="512">
    <path
        d="M0 0 C0.51546387 0.45375 1.03092773 0.9075 1.56201172 1.375 C43.80118956 38.62696518 68.38575452 92.04327743 72 148 C74.65190006 204.54761141 55.82139141 259.73893123 18 302 C17.50854492 302.55316895 17.01708984 303.10633789 16.51074219 303.67626953 C-18.44168214 342.86569192 -66.17665265 366.2492109 -118 373 C-118.99386719 373.13277344 -119.98773438 373.26554687 -121.01171875 373.40234375 C-175.11400644 379.16798901 -232.14792398 362.3981372 -274.47265625 328.2421875 C-277.71051275 325.56399583 -280.86365623 322.79580375 -284 320 C-284.7731958 319.319375 -284.7731958 319.319375 -285.56201172 318.625 C-327.85705744 281.32376331 -352.27589558 227.99087542 -356 172 C-358.5087678 125.23686691 -346.07580975 75.95228037 -318 38 C-317.24460937 36.97390625 -316.48921875 35.9478125 -315.7109375 34.890625 C-304.28130518 19.61359836 -291.92344777 5.93032689 -277 -6 C-275.84757812 -6.97066406 -275.84757812 -6.97066406 -274.671875 -7.9609375 C-243.97286268 -33.54344776 -205.34775042 -48.07171389 -166 -53 C-165.01 -53.13148437 -164.02 -53.26296875 -163 -53.3984375 C-103.99467978 -59.74493997 -44.04133457 -39.25938529 0 0 Z M-255.60546875 33.7578125 C-257.60371686 35.628929 -259.63509164 37.38993106 -261.75 39.125 C-265.59341922 42.40508118 -268.80472969 46.09466963 -272 50 C-272.75152344 50.91394531 -273.50304687 51.82789063 -274.27734375 52.76953125 C-303.18034098 89.06950407 -315.87884575 133.6044392 -311.5390625 179.76171875 C-307.4730998 214.49315925 -292.19195459 248.1261994 -268.2421875 273.60546875 C-266.371071 275.60371686 -264.61006894 277.63509164 -262.875 279.75 C-238.37111514 308.4623083 -195.9459417 326.14034769 -159.00488281 329.77294922 C-114.91037955 333.10475683 -69.66573752 321.62371855 -35.44042969 292.68115234 C-33.04727359 290.58114627 -30.7143275 288.42272804 -28.39453125 286.2421875 C-26.39628314 284.371071 -24.36490836 282.61006894 -22.25 280.875 C-10.6359738 270.96326606 -1.55730712 257.11055102 6 244 C6.65742188 242.88496094 7.31484375 241.76992188 7.9921875 240.62109375 C17.13358099 224.66031848 22.76526573 207.0466442 26 189 C26.22429687 187.85660156 26.44859375 186.71320313 26.6796875 185.53515625 C33.89664904 142.38168077 22.05755678 97.18730189 -2.9375 61.6875 C-6.86337514 56.2463748 -11.1610711 51.28483402 -15.7578125 46.39453125 C-17.628929 44.39628314 -19.38993106 42.36490836 -21.125 40.25 C-24.40508118 36.40658078 -28.09466963 33.19527031 -32 30 C-32.91394531 29.24847656 -33.82789063 28.49695313 -34.76953125 27.72265625 C-99.13582253 -23.52748511 -194.71716125 -23.47541358 -255.60546875 33.7578125 Z "
        fill="#95a5a6"
        transform="translate(398,96)"
    />
    <path
        d="M0 0 C4.74178428 3.53291042 7.77866636 8.73190246 8.9765625 14.47265625 C9.08174785 17.46030187 9.13376792 20.42494551 9.13769531 23.4128418 C9.14514267 24.76728645 9.14514267 24.76728645 9.15274048 26.14909363 C9.16734237 29.13586186 9.17416164 32.12257694 9.1796875 35.109375 C9.18544158 37.18960064 9.19119928 39.26982626 9.19696045 41.35005188 C9.20746552 45.7137578 9.21331109 50.07744533 9.21679688 54.44116211 C9.22227358 60.01837809 9.24628621 65.59534896 9.27476883 71.17248821 C9.29344381 75.47146807 9.29860345 79.77038953 9.30013275 84.06940651 C9.30314998 86.12459462 9.31114695 88.17978192 9.32431793 90.23493004 C9.34147633 93.11863912 9.33947406 96.00175787 9.33300781 98.88549805 C9.34682999 100.14598969 9.34682999 100.14598969 9.3609314 101.4319458 C9.31487464 108.02743102 8.27992531 114.47327729 4.1796875 119.8125 C-1.7849346 124.69156088 -6.9962173 127.0020657 -14.91796875 126.7109375 C-22.31755971 125.87350698 -26.76315386 123.44206417 -31.61328125 117.80078125 C-35.17849768 111.91471756 -35.3177861 105.86211626 -35.2980957 99.17602539 C-35.30320663 98.27101791 -35.30831757 97.36601044 -35.31358337 96.43357849 C-35.32742121 93.45825487 -35.32652708 90.48316437 -35.32421875 87.5078125 C-35.32810865 85.4294781 -35.33244393 83.35114448 -35.33720398 81.27281189 C-35.34465354 76.92281514 -35.3443839 72.57289957 -35.33911133 68.22290039 C-35.33331613 62.66022308 -35.35025522 57.09787867 -35.373456 51.53525639 C-35.38821698 47.24488903 -35.38906185 42.95460143 -35.38594627 38.66421318 C-35.38645822 36.61378762 -35.39167206 34.56335744 -35.40175819 32.51295662 C-35.41415211 29.641314 -35.40731331 26.77031465 -35.39575195 23.89868164 C-35.40339569 23.05947174 -35.41103943 22.22026184 -35.41891479 21.35562134 C-35.35973126 14.67468023 -33.83313637 9.53522357 -30.3984375 3.72265625 C-22.23790345 -4.00837601 -9.9314494 -5.03795342 0 0 Z "
        fill="#95a5a6"
        transform="translate(269.0234375,151.52734375)"
    />
    <path
        d="M0 0 C5.81232712 2.65104233 9.37501715 6.66652394 11.734375 12.62109375 C13.39693457 21.53845872 12.415954 28.24169082 7.796875 36.05859375 C2.75283922 40.83715396 -2.68644479 42.55367191 -9.578125 42.80859375 C-15.21577951 42.57189833 -19.98704703 41.72921903 -24.578125 38.30859375 C-29.90484518 32.18398932 -31.91143585 26.69596134 -31.79296875 18.6796875 C-31.1864 11.98537424 -28.26190938 6.99237813 -23.578125 2.30859375 C-16.50348836 -1.97906482 -7.92960025 -2.12657461 0 0 Z "
        fill="#95a5a6"
        transform="translate(265.578125,320.69140625)"
    />
</svg>
