<?xml version="1.0" encoding="UTF-8"?>
<svg version="1.1" xmlns="http://www.w3.org/2000/svg" width="512" height="512">
<path d="M0 0 C0.70372781 -0.00380567 1.40745562 -0.00761134 2.13250852 -0.01153234 C4.50848301 -0.02190084 6.88422092 -0.01793234 9.26021194 -0.01409245 C10.9737316 -0.01854201 12.6872492 -0.02385512 14.40076375 -0.02996117 C19.12354187 -0.04418554 23.84625432 -0.04580362 28.56905079 -0.04536426 C33.65712798 -0.04700858 38.7451778 -0.06006789 43.83324051 -0.07155704 C54.96540885 -0.09443646 66.09755816 -0.10233085 77.22974682 -0.10738349 C84.17762093 -0.11063717 91.12548948 -0.11715767 98.07336044 -0.12438488 C117.30100069 -0.14395484 136.52863577 -0.16035666 155.75628662 -0.16326141 C156.9874466 -0.16344898 158.21860659 -0.16363655 159.48707445 -0.16382981 C161.98306417 -0.16419606 164.4790539 -0.16455976 166.97504362 -0.16492092 C168.21409851 -0.16510373 169.4531534 -0.16528654 170.7297554 -0.16547489 C171.97031847 -0.16565544 173.21088154 -0.16583599 174.48903742 -0.16602201 C194.59506308 -0.16956438 214.70098169 -0.19658898 234.80697021 -0.23397278 C255.43774114 -0.27202608 276.0684589 -0.29141867 296.69926572 -0.29172093 C308.28745231 -0.29230618 319.87551122 -0.30084169 331.46366501 -0.32971859 C341.33057625 -0.3541927 351.19731326 -0.36154226 361.06424662 -0.34647106 C366.10007481 -0.33928583 371.13555866 -0.34022897 376.17134857 -0.36288166 C380.78058756 -0.3834172 385.3892163 -0.38092223 389.99844828 -0.36000682 C391.66671353 -0.35650149 393.33502232 -0.36146592 395.00323042 -0.37571125 C409.02260236 -0.48771987 409.02260236 -0.48771987 413.57207489 2.58429527 C420.44458137 9.70773674 419.54365634 18.09697258 419.45436478 27.42803097 C419.45598012 28.79467845 419.45977688 30.16132492 419.46564102 31.52796078 C419.48732614 37.29649263 419.4764216 43.0646183 419.43849564 48.83306026 C419.41668535 52.37635591 419.42393711 55.91864046 419.44895363 59.46189976 C419.45427435 61.45663057 419.42656569 63.45136153 419.39828873 65.44589901 C419.20935233 71.60735015 419.20935233 71.60735015 421.4709053 77.10593319 C423.24821196 78.61452214 423.24821196 78.61452214 426.15358353 80.26006222 C430.08091489 87.21160445 429.61120031 94.80323609 429.54469681 102.57817745 C429.52859429 104.8210627 429.54461011 107.06215318 429.56373978 109.30498409 C429.56175753 110.74964947 429.55791424 112.19431375 429.55202103 113.63896847 C429.54863724 114.93391232 429.54525345 116.22885616 429.54176712 117.56304073 C428.83895726 124.2565311 426.36788578 128.84796031 421.15358353 133.26006222 C420.49358353 133.26006222 419.83358353 133.26006222 419.15358353 133.26006222 C419.14402709 149.34150664 419.16863189 165.42247991 419.23386192 181.50377846 C419.26335405 188.97070972 419.28168344 196.43735634 419.27370071 203.90434933 C419.26677095 210.41292693 419.28081975 216.92106402 419.3200196 223.4295333 C419.34004343 226.87561252 419.34958864 230.32100005 419.33400726 233.7671175 C419.3170024 237.61502923 419.34683644 241.46180525 419.38063431 245.30962276 C419.36230293 247.02189556 419.36230293 247.02189556 419.34360123 248.76875973 C419.25979934 254.2211191 419.25979934 254.2211191 421.47563171 258.99052525 C423.26465325 260.49886787 423.26465325 260.49886787 426.15358353 262.26006222 C430.08091489 269.21160445 429.61120031 276.80323609 429.54469681 284.57817745 C429.52859429 286.8210627 429.54461011 289.06215318 429.56373978 291.30498409 C429.56175753 292.74964947 429.55791424 294.19431375 429.55202103 295.63896847 C429.54863724 296.93391232 429.54525345 298.22885616 429.54176712 299.56304073 C428.83895726 306.2565311 426.36788578 310.84796031 421.15358353 315.26006222 C420.49358353 315.26006222 419.83358353 315.26006222 419.15358353 315.26006222 C419.15358353 330.77006222 419.15358353 346.28006222 419.15358353 362.26006222 C421.13358353 362.59006222 423.11358353 362.92006222 425.15358353 363.26006222 C429.42926811 365.74592535 431.22203714 368.53050818 432.71217728 373.11162472 C433.74108215 378.11956878 432.80240186 382.03194181 430.40358353 386.57256222 C428.15358353 389.26006222 428.15358353 389.26006222 423.15358353 392.26006222 C414.57358353 392.26006222 405.99358353 392.26006222 397.15358353 392.26006222 C397.15358353 421.96006222 397.15358353 451.66006222 397.15358353 482.26006222 C405.73358353 482.26006222 414.31358353 482.26006222 423.15358353 482.26006222 C429.58072303 486.54482189 431.3914248 487.88478786 433.02858353 495.13506222 C433.42296221 499.49787644 432.32294741 502.42751935 430.15358353 506.26006222 C426.13397568 510.76986614 426.13397568 510.76986614 423.15358353 512.26006222 C421.12390829 512.35872704 419.09091493 512.39108641 417.05884552 512.39428329 C415.75025707 512.39874114 414.44166863 512.40319898 413.09342599 512.40779191 C411.62725209 512.40770261 410.1610782 512.40751273 408.69490433 512.40723324 C407.14810523 512.41053082 405.601307 512.41425616 404.05450988 512.41837472 C399.78766255 512.42841579 395.52082929 512.43211492 391.25397182 512.43476403 C386.65791647 512.43866111 382.06187234 512.44824017 377.46582413 512.45697689 C366.35488684 512.47676308 355.24394862 512.48681239 344.13299811 512.49570468 C338.90078206 512.50008597 333.66856702 512.50545337 328.43635178 512.51069355 C311.04110423 512.52771157 293.64585732 512.54220398 276.25060272 512.54944229 C271.73372522 512.55135221 267.21684773 512.55327253 262.69997025 512.55522823 C261.57731183 512.55571197 260.45465341 512.55619571 259.29797503 512.55669411 C241.12688938 512.56498766 222.9558697 512.59031061 204.78481284 512.62280891 C186.12817586 512.65590333 167.47157236 512.6738934 148.81490588 512.67708653 C138.34040793 512.67924993 127.86600604 512.68797318 117.39153671 512.71354771 C108.46684755 512.73528762 99.54227777 512.74328911 90.61756513 512.73358092 C86.06697471 512.72904513 81.51663043 512.73088017 76.96607399 512.75034237 C72.79196083 512.7680395 68.61827219 512.76692365 64.44415411 512.75144508 C62.94195071 512.74907883 61.43971739 512.75334101 59.93755952 512.76527373 C47.12125251 512.86069494 35.50128733 510.56591905 24.02858353 504.63506222 C23.03374954 504.12628536 23.03374954 504.12628536 22.0188179 503.60723019 C5.35720413 494.72718338 -7.44245055 479.2927677 -13.20188522 461.27959347 C-16.77793467 448.89943254 -16.99297907 436.81639585 -16.98012924 424.05899715 C-16.98199892 422.29976575 -16.98430024 420.54053476 -16.98699456 418.78130442 C-16.99309929 413.96000827 -16.99298054 409.1387295 -16.99180019 404.31743038 C-16.99159586 399.11288523 -16.99711795 393.90834562 -17.00185776 388.70380306 C-17.01015682 378.51347784 -17.01291223 368.3231584 -17.01347014 358.13283008 C-17.0139455 349.85126598 -17.01600128 341.56970379 -17.01917076 333.2881403 C-17.02797411 309.80805087 -17.03259046 286.32796602 -17.03184029 262.84787493 C-17.03180033 261.58260523 -17.03176037 260.31733553 -17.03171921 259.01372433 C-17.03167833 257.74691043 -17.03163745 256.48009654 -17.03159533 255.17489434 C-17.0311886 234.63024209 -17.04076557 214.08560815 -17.05485757 193.5409612 C-17.06921326 172.44556484 -17.07612825 151.35017742 -17.0752638 130.25477606 C-17.07493162 118.41126899 -17.07768789 106.56778112 -17.08844185 94.72427845 C-17.09753605 84.64421823 -17.09973087 74.56418594 -17.09293243 64.4841234 C-17.0896622 59.34089846 -17.08962874 54.19772713 -17.09828568 49.05450726 C-17.10612899 44.34632215 -17.10474148 39.63823337 -17.09600154 34.93005068 C-17.09446181 33.22695805 -17.09630048 31.52385831 -17.10186162 29.82077407 C-17.10892408 27.50450134 -17.10362634 25.18856627 -17.09530544 22.87230492 C-17.09552281 21.58613445 -17.09574018 20.29996398 -17.09596413 18.97481865 C-16.72264521 13.41760818 -16.10659476 8.74642635 -12.40891647 4.38506222 C-7.94149241 0.68036909 -5.76386036 0.00893316 0 0 Z " fill="#8A5E4E" transform="translate(47.84641647338867,-0.26006221771240234)"/>
<path d="M0 0 C0.87644348 -0.00170885 1.75288696 -0.0034177 2.65588933 -0.00517833 C5.60403382 -0.00848271 8.55195264 0.00254606 11.50007629 0.01345825 C13.60886632 0.01402216 15.71765674 0.0137062 17.82644653 0.01257324 C23.56165736 0.01199794 29.29678502 0.023781 35.03197646 0.03772116 C41.02177115 0.05019892 47.01156761 0.05139668 53.00137329 0.05377197 C64.34856775 0.05999544 75.69572381 0.07641798 87.04290134 0.09647095 C102.37306109 0.12297635 117.70323129 0.13379559 133.03340816 0.14547539 C157.19395718 0.16429796 181.35442515 0.20413789 205.51496887 0.24050903 C205.51496887 59.97050903 205.51496887 119.70050903 205.51496887 181.24050903 C209.80496887 181.24050903 214.09496887 181.24050903 218.51496887 181.24050903 C218.43246887 179.71425903 218.34996887 178.18800903 218.26496887 176.61550903 C218.27898737 171.65296033 219.10147562 169.01331736 222.51496887 165.24050903 C226.70335358 161.5391458 229.90982131 160.64644697 235.33918762 160.92019653 C239.9456526 161.59834757 242.70698318 163.36701099 245.82746887 166.74050903 C248.19114714 170.24225462 248.63725071 172.80306199 248.57746887 176.92800903 C248.56844543 177.73625122 248.559422 178.54449341 248.55012512 179.37722778 C248.53272278 180.299552 248.53272278 180.299552 248.51496887 181.24050903 C249.50496887 181.19410278 250.49496887 181.14769653 251.51496887 181.09988403 C266.24603471 180.60748072 266.24603471 180.60748072 271.51496887 185.24050903 C274.67505035 188.82868036 276.29855562 192.02859484 277.13996887 196.74050903 C276.32107251 201.32632864 274.81598642 204.90510589 271.51496887 208.24050903 C251.80146532 218.09726081 227.55533588 212.24050903 205.51496887 212.24050903 C205.51496887 261.74050903 205.51496887 311.24050903 205.51496887 362.24050903 C194.39293762 362.28949341 183.27090637 362.33847778 171.81184387 362.38894653 C164.75714869 362.42434053 157.70246163 362.46022536 150.64778137 362.49832153 C139.45541755 362.55867072 128.26306896 362.61704155 117.07063293 362.66238403 C108.91809908 362.69542059 100.76563189 362.73531545 92.61317182 362.78329909 C88.30021559 362.80844862 83.98730294 362.83026338 79.67429352 362.843853 C75.60641316 362.85677893 71.53868312 362.87894431 67.47088623 362.90789223 C65.98594041 362.91688639 64.50097044 362.9226389 63.01599884 362.92472267 C39.85962942 362.96300192 20.55970111 369.04427005 3.51496887 385.24050903 C-8.91901942 399.22130927 -14.4930321 415.04211496 -17.48503113 433.24050903 C-17.81503113 433.24050903 -18.14503113 433.24050903 -18.48503113 433.24050903 C-18.53079427 380.1259582 -18.56604307 327.01140935 -18.58716179 273.89684269 C-18.58966324 267.62826008 -18.59225188 261.35967752 -18.59489441 255.09109497 C-18.59568134 253.21912723 -18.59568134 253.21912723 -18.59648417 251.30934197 C-18.60519024 231.09391223 -18.62096134 210.87849385 -18.63933672 190.66307086 C-18.65803013 169.92504536 -18.66914667 149.18702583 -18.67320812 128.44899225 C-18.67595433 115.64929634 -18.68463266 102.84963252 -18.70086406 90.04994649 C-18.71142403 81.27647652 -18.71463399 72.50302318 -18.71203388 63.72954732 C-18.71075106 58.66536786 -18.71273785 53.60124456 -18.72344208 48.53707504 C-18.73317059 43.90070035 -18.73366858 39.26441962 -18.72682892 34.62804061 C-18.7259835 32.95092229 -18.72852392 31.27379811 -18.73479749 29.59669131 C-18.74283506 27.31533064 -18.73849024 25.0343082 -18.73112679 22.75295258 C-18.73188623 21.48620555 -18.73264567 20.21945853 -18.73342812 18.91432524 C-18.35884967 13.37427279 -17.73332447 8.71285503 -14.04753113 4.36550903 C-9.20555686 0.3502133 -6.09593509 -0.04310224 0 0 Z " fill="#B08360" transform="translate(49.48503112792969,-0.240509033203125)"/>
<path d="M0 0 C1.42996134 -0.00087298 2.85992237 -0.00262566 4.28988171 -0.00517833 C8.20539117 -0.0096377 12.12079065 -0.00166764 16.03628612 0.00837779 C20.26386042 0.01703037 24.49142873 0.01409085 28.7190094 0.01257324 C36.03897567 0.01152553 43.35890623 0.0177902 50.67886353 0.02904892 C61.26223358 0.04531643 71.8455864 0.05051321 82.4289676 0.0530249 C99.60060406 0.05740004 116.77222151 0.07070423 133.94384766 0.08963013 C150.62255763 0.10799361 167.30126243 0.12214783 183.97998047 0.13064575 C185.522598 0.13143392 185.522598 0.13143392 187.09637952 0.13223802 C192.25571899 0.13484813 197.4150585 0.13737553 202.57439804 0.13986182 C245.36309215 0.16058868 288.15175107 0.19745541 330.94042969 0.24050903 C330.94042969 29.94050903 330.94042969 59.64050903 330.94042969 90.24050903 C287.21074485 90.32873187 243.48114412 90.40257275 199.75139572 90.44477035 C194.58580988 90.44977303 189.42022423 90.45495033 184.25463867 90.4602356 C183.22628661 90.46128484 182.19793455 90.46233408 181.13842031 90.46341512 C164.49910087 90.48080864 147.85983686 90.51234053 131.22055028 90.54912022 C114.14035353 90.58655893 97.06018575 90.60875108 79.97994965 90.61686301 C69.44503702 90.6223447 58.91028105 90.63964278 48.37541666 90.6721749 C41.14605034 90.69335896 33.91676471 90.69970028 26.68736962 90.69451454 C22.51967835 90.69195882 18.35226037 90.69580822 14.184618 90.71733093 C10.3614365 90.73692958 6.53870965 90.73769383 2.71550634 90.72410461 C0.69304674 90.72163898 -1.32940826 90.73877117 -3.3517887 90.75683427 C-17.52052904 90.66491709 -28.92820597 86.94239991 -39.27832031 77.13894653 C-49.23701595 66.62286121 -52.77994912 55.0375052 -52.43457031 40.86550903 C-51.71854936 28.40674439 -45.09006993 18.79864981 -36.24707031 10.49050903 C-25.27240147 1.34141373 -13.81405445 -0.06100967 0 0 Z " fill="#E7E2ED" transform="translate(114.0595703125,391.7594909667969)"/>
<path d="M0 0 C1.53705496 -0.00330307 3.07410906 -0.00702956 4.61116207 -0.01114148 C8.82289038 -0.0211179 13.03460445 -0.02487116 17.2463429 -0.02753079 C21.79305957 -0.03144642 26.33976509 -0.04102332 30.88647461 -0.04974365 C41.85544776 -0.06946468 52.82442178 -0.07956523 63.79340822 -0.08847144 C68.95989721 -0.0928584 74.12638519 -0.09822386 79.29287338 -0.10346031 C96.46534322 -0.12046239 113.63781243 -0.13495928 130.81028938 -0.14220905 C135.26194383 -0.14411888 139.71359826 -0.14603924 144.16525269 -0.147995 C145.82486892 -0.14872061 145.82486892 -0.14872061 147.51801275 -0.14946087 C165.46456002 -0.15777172 183.41104087 -0.18313095 201.3575591 -0.21557567 C219.78382488 -0.24861647 238.21005685 -0.2666548 256.63635242 -0.26985329 C266.98195642 -0.27202032 277.32746333 -0.28079802 287.67303848 -0.30631447 C296.47740457 -0.3279801 305.28164995 -0.33609203 314.08603968 -0.32634769 C318.57897417 -0.321792 323.07165937 -0.32376296 327.56455994 -0.34310913 C331.67633723 -0.36066188 335.78768189 -0.35980779 339.89946328 -0.34421184 C341.38788618 -0.34182382 342.87633842 -0.3462209 344.36471631 -0.35804049 C346.38648353 -0.37310327 348.40839821 -0.36112969 350.43017769 -0.34781361 C352.11532689 -0.34927882 352.11532689 -0.34927882 353.83451951 -0.35077363 C358.58655951 0.40733448 361.77560204 2.68212248 364.76828003 6.39717102 C367.02716212 11.62826638 367.46815342 15.4677249 365.83078003 20.83467102 C363.57684241 24.81662747 361.1127315 28.06869529 356.95578003 30.14717102 C354.95637786 30.24361487 352.95367961 30.27378704 350.95195293 30.27466297 C349.66364816 30.27767062 348.37534339 30.28067827 347.04799908 30.28377706 C345.6047176 30.28208925 344.1614362 30.28031818 342.71815491 30.2784729 C341.19539232 30.2801739 339.67263017 30.28232305 338.14986879 30.28488415 C334.82859015 30.28949267 331.50733017 30.29089978 328.18604851 30.2899189 C322.78249246 30.28833006 317.37895501 30.29351996 311.97540283 30.29954529 C304.12826226 30.30766912 296.28112495 30.31260597 288.43398094 30.31583595 C276.02581283 30.32132827 263.61767228 30.33822264 251.20951843 30.35717773 C246.96543794 30.36353509 242.72135737 30.36984348 238.4772768 30.3761549 C236.88609519 30.37853054 236.88609519 30.37853054 235.2627685 30.38095418 C223.17875154 30.39890241 211.09473263 30.41512175 199.01071167 30.43013 C197.90573463 30.43150588 196.80075759 30.43288175 195.66229639 30.43429931 C177.77509525 30.45620659 159.88790118 30.46697945 142.00068899 30.47450075 C123.63669966 30.4825784 105.2727709 30.50589238 86.90881616 30.54245442 C75.58303551 30.56445864 64.2573795 30.5741504 52.93157855 30.56795409 C45.16209902 30.56477379 37.39272567 30.57614726 29.623279 30.5988485 C25.14371429 30.61148746 20.66438625 30.61772123 16.18481255 30.60643196 C12.07671942 30.59621239 7.96908427 30.60461742 3.86104492 30.62729492 C2.38175159 30.63226101 0.90241661 30.63061569 -0.57685611 30.62136225 C-15.64387614 30.53458873 -27.89422759 33.53436019 -39.04031372 44.02607727 C-48.59071107 54.19262929 -51.75012462 65.94409589 -51.41921997 79.52217102 C-50.723894 91.62084289 -44.41155136 101.33003362 -35.73171997 109.39717102 C-24.5793242 118.39910482 -12.85270207 119.44580618 0.96203613 119.39872742 C2.4949668 119.40086767 4.02789643 119.40389434 5.5608238 119.40772784 C9.76117906 119.41574988 13.961445 119.41146968 18.16179991 119.40520906 C22.69624721 119.40066893 27.23067768 119.40771867 31.76512146 119.41351318 C39.61872592 119.42213979 47.47230786 119.4239559 55.32591629 119.42156601 C66.68741068 119.41846762 78.04885528 119.43010941 89.41033714 119.44611581 C107.85288917 119.47206902 126.29544124 119.49209333 144.73800659 119.50556946 C146.3931369 119.50678501 146.3931369 119.50678501 148.08170418 119.50802512 C163.75072299 119.5192536 179.41973825 119.52452952 195.08876054 119.52741225 C196.74480042 119.52771823 196.74480042 119.52771823 198.43429565 119.5280304 C200.08831738 119.5283303 200.08831738 119.5283303 201.77575369 119.52863626 C220.15232464 119.53236694 238.52884151 119.55143482 256.90538538 119.58312476 C268.2408052 119.60205446 279.57608643 119.60799158 290.91151772 119.59730758 C298.67434225 119.59099696 306.43706721 119.59900498 314.19986989 119.6183617 C318.68063942 119.6290619 323.1611673 119.63316432 327.64193535 119.61989021 C331.74263169 119.60786368 335.84287431 119.6141513 339.94353108 119.6350822 C341.42790725 119.63939428 342.91232161 119.63692661 344.39667113 119.62704103 C346.41301614 119.61458583 348.42947388 119.62909869 350.44579506 119.64494896 C352.12638761 119.64560106 352.12638761 119.64560106 353.84093153 119.64626634 C358.58742485 120.40955891 361.77835066 122.68553456 364.76828003 126.39717102 C367.02716212 131.62826638 367.46815342 135.4677249 365.83078003 140.83467102 C363.57684241 144.81662747 361.1127315 148.06869529 356.95578003 150.14717102 C354.9261048 150.24583584 352.89311143 150.27819521 350.86104202 150.2813921 C349.55245358 150.28584994 348.24386513 150.29030779 346.89562249 150.29490072 C345.4294486 150.29481141 343.9632747 150.29462154 342.49710083 150.29434204 C340.95030174 150.29763962 339.40350351 150.30136496 337.85670638 150.30548352 C333.58985905 150.31552459 329.32302579 150.31922373 325.05616832 150.32187283 C320.46011298 150.32576991 315.86406884 150.33534897 311.26802063 150.34408569 C300.15708334 150.36387188 289.04614512 150.37392119 277.93519461 150.38281348 C272.70297856 150.38719477 267.47076353 150.39256217 262.23854828 150.39780235 C244.84330073 150.41482038 227.44805382 150.42931279 210.05279922 150.43655109 C205.53592172 150.43846102 201.01904423 150.44038134 196.50216675 150.44233704 C195.37950833 150.44282078 194.25684991 150.44330452 193.10017154 150.44380292 C174.92908588 150.45209647 156.75806621 150.47741941 138.58700934 150.50991771 C119.93037236 150.54301213 101.27376887 150.5610022 82.61710238 150.56419533 C72.14260443 150.56635873 61.66820255 150.57508199 51.19373322 150.60065651 C42.26904405 150.62239643 33.34447427 150.63039792 24.41976163 150.62068973 C19.86917121 150.61615393 15.31882694 150.61798898 10.76827049 150.63745117 C6.59415734 150.6551483 2.42046869 150.65403245 -1.75364938 150.63855388 C-3.25585279 150.63618763 -4.7580861 150.64044981 -6.26024398 150.65238253 C-19.07655099 150.74780374 -30.69651617 148.45302786 -42.16921997 142.52217102 C-42.83244263 142.18298645 -43.49566528 141.84380188 -44.1789856 141.49433899 C-61.15227629 132.44817949 -72.85116587 117.31956939 -79.39968872 99.44795227 C-85.54984993 78.55516635 -83.42649074 57.38420605 -73.04421997 38.14717102 C-70.59365171 34.2841571 -67.92391935 30.69880026 -65.04421997 27.14717102 C-64.4899231 26.42916321 -63.93562622 25.7111554 -63.36453247 24.97138977 C-52.53112579 11.62401073 -34.6447409 2.42013091 -17.65963197 0.36163104 C-11.7879911 -0.11983505 -5.88754256 -0.00114763 0 0 Z " fill="#8A5E4E" transform="translate(114.04421997070313,361.8528289794922)"/>
<path d="M0 0 C1.53810621 0.00056483 3.07621295 0.00024616 4.61431885 -0.00088501 C8.77078512 -0.00145674 12.92713498 0.01026833 17.0835743 0.02426291 C21.43441293 0.03680036 25.78525449 0.03794314 30.1361084 0.04031372 C38.3665384 0.04651965 46.596915 0.06291842 54.82732153 0.0830127 C65.95509424 0.10958868 77.08288164 0.12035152 88.2106781 0.13201714 C105.73098682 0.15079967 123.25118289 0.19065126 140.77148438 0.22705078 C140.77148438 29.92705078 140.77148438 59.62705078 140.77148438 90.22705078 C102.17461194 90.38826292 102.17461194 90.38826292 85.953125 90.42236328 C74.76953766 90.44606245 63.58607122 90.473865 52.40258789 90.52880859 C44.25631622 90.56881135 36.11014298 90.59451548 27.96377581 90.60340476 C23.65457285 90.60859687 19.34565138 90.62070744 15.03653908 90.64997101 C10.97109222 90.67735314 6.90603973 90.68545036 2.84050941 90.67948151 C1.35755766 90.68057165 -0.12540887 90.68838887 -1.60828018 90.70387268 C-16.84368444 90.85499985 -29.19595713 87.78253753 -40.44726562 77.12548828 C-50.40596127 66.60940296 -53.94889444 55.02404695 -53.60351562 40.85205078 C-52.88749467 28.39328613 -46.25901525 18.78519155 -37.41601562 10.47705078 C-26.0970855 1.0409601 -14.15357856 -0.0729422 0 0 Z " fill="#F8F1F1" transform="translate(115.228515625,391.77294921875)"/>
<path d="M0 0 C11.56569865 6.95462055 22.17522196 17.733637 26 31 C26 32.32 26 33.64 26 35 C46.46 35 66.92 35 88 35 C88 31.37 88 27.74 88 24 C90.29678253 19.14142156 93.17840611 16.36531021 98 14 C103.64610559 13.0978395 108.19319926 13.75820415 113 17 C116.80464463 21.11312933 118.14308532 24.12711303 118.0625 29.6875 C118.05347656 30.49574219 118.04445313 31.30398437 118.03515625 32.13671875 C118.01775391 33.05904297 118.01775391 33.05904297 118 34 C118.99 33.95359375 119.98 33.9071875 121 33.859375 C135.73106584 33.36697169 135.73106584 33.36697169 141 38 C144.16008148 41.58817133 145.78358675 44.78808581 146.625 49.5 C145.80610364 54.08581961 144.30101755 57.66459686 141 61 C134.90860891 65.08757642 129.45563714 65.5604482 122.26953125 65.45410156 C121.22473099 65.45468567 120.17993073 65.45526978 119.10346985 65.45587158 C115.6728008 65.45309959 112.24301604 65.42204838 108.8125 65.390625 C106.42497228 65.38315949 104.0374384 65.37746802 101.64990234 65.37347412 C95.3829439 65.35824236 89.11635955 65.31898119 82.84954834 65.2746582 C76.44792744 65.23365275 70.04624578 65.21545181 63.64453125 65.1953125 C51.09619509 65.15248502 38.54811749 65.08503803 26 65 C25.86279541 65.93030029 25.72559082 66.86060059 25.58422852 67.8190918 C23.54132771 78.94193116 14.0704501 89.18758512 5.25 95.75 C-7.60462813 104.24746123 -22.45566362 108.13874021 -37.7109375 105.3125 C-53.2222204 101.53693418 -65.96464602 94.02624257 -74.9375 80.5 C-81.1822483 69.89289164 -84.65939362 59.09616658 -83.9375 46.75 C-83.88932129 45.92371094 -83.84114258 45.09742188 -83.79150391 44.24609375 C-82.59216065 28.70598873 -74.77238982 15.41341271 -63.109375 5.296875 C-57.79299174 1.36969741 -52.08752126 -1.43376349 -46 -4 C-45.10667969 -4.3815625 -44.21335938 -4.763125 -43.29296875 -5.15625 C-29.22778348 -8.76014089 -12.62659439 -7.24522675 0 0 Z " fill="#FDC077" transform="translate(180,147)"/>
<path d="M0 0 C27.92886616 -0.09255857 55.85769543 -0.16395935 83.78668404 -0.20724869 C96.75432681 -0.22788209 109.7218726 -0.2560177 122.68945312 -0.30175781 C133.99076396 -0.34160158 145.29200455 -0.36742715 156.59338367 -0.37635398 C162.57850963 -0.38157285 168.56343463 -0.39385557 174.54849625 -0.42292023 C180.18075362 -0.45005025 185.81272706 -0.45844977 191.44504356 -0.45243073 C193.51306259 -0.45353203 195.58109101 -0.4615001 197.64905357 -0.4768219 C200.47179906 -0.4967118 203.29347135 -0.49194263 206.11624146 -0.48101807 C206.93531829 -0.49266943 207.75439512 -0.5043208 208.59829247 -0.51632524 C213.85824606 -0.4612686 216.81058179 0.54344642 221 4 C224.1115103 7.86256451 225.14997231 12.0790337 225 17 C223.39983279 22.24499252 221.11647993 25.41127391 217 29 C213.74765386 30.62617307 210.17050804 30.13278365 206.59725952 30.12025452 C205.71758691 30.12110894 204.83791431 30.12196337 203.93158495 30.12284368 C200.96657667 30.12449853 198.00162422 30.11897702 195.03662109 30.11352539 C192.91812644 30.11324349 190.79963168 30.1134013 188.68113708 30.1139679 C182.91490199 30.11425577 177.14868754 30.1083606 171.38245726 30.10139394 C165.36195701 30.0951588 159.34145634 30.09455647 153.32095337 30.09336853 C141.91353232 30.09025569 130.50612082 30.08204293 119.09870398 30.07201904 C106.11462537 30.06085644 93.13054632 30.05534708 80.14646411 30.05032361 C53.4309706 30.03986029 26.71548623 30.02206122 0 30 C0 20.1 0 10.2 0 0 Z " fill="#6F4242" transform="translate(256,362)"/>
<path d="M0 0 C27.92886616 -0.09255857 55.85769543 -0.16395935 83.78668404 -0.20724869 C96.75432681 -0.22788209 109.7218726 -0.2560177 122.68945312 -0.30175781 C133.99076396 -0.34160158 145.29200455 -0.36742715 156.59338367 -0.37635398 C162.57850963 -0.38157285 168.56343463 -0.39385557 174.54849625 -0.42292023 C180.18075362 -0.45005025 185.81272706 -0.45844977 191.44504356 -0.45243073 C193.51306259 -0.45353203 195.58109101 -0.4615001 197.64905357 -0.4768219 C200.47179906 -0.4967118 203.29347135 -0.49194263 206.11624146 -0.48101807 C206.93531829 -0.49266943 207.75439512 -0.5043208 208.59829247 -0.51632524 C213.85824606 -0.4612686 216.81058179 0.54344642 221 4 C224.1115103 7.86256451 225.14997231 12.0790337 225 17 C223.39983279 22.24499252 221.11647993 25.41127391 217 29 C213.74765386 30.62617307 210.17050804 30.13278365 206.59725952 30.12025452 C205.71758691 30.12110894 204.83791431 30.12196337 203.93158495 30.12284368 C200.96657667 30.12449853 198.00162422 30.11897702 195.03662109 30.11352539 C192.91812644 30.11324349 190.79963168 30.1134013 188.68113708 30.1139679 C182.91490199 30.11425577 177.14868754 30.1083606 171.38245726 30.10139394 C165.36195701 30.0951588 159.34145634 30.09455647 153.32095337 30.09336853 C141.91353232 30.09025569 130.50612082 30.08204293 119.09870398 30.07201904 C106.11462537 30.06085644 93.13054632 30.05534708 80.14646411 30.05032361 C53.4309706 30.03986029 26.71548623 30.02206122 0 30 C0 20.1 0 10.2 0 0 Z " fill="#6F4242" transform="translate(256,482)"/>
<path d="M0 0 C11.56569865 6.95462055 22.17522196 17.733637 26 31 C26 32.32 26 33.64 26 35 C46.46 35 66.92 35 88 35 C88 31.37 88 27.74 88 24 C90.29678253 19.14142156 93.17840611 16.36531021 98 14 C103.64610559 13.0978395 108.19319926 13.75820415 113 17 C116.80464463 21.11312933 118.14308532 24.12711303 118.0625 29.6875 C118.05347656 30.49574219 118.04445313 31.30398437 118.03515625 32.13671875 C118.01775391 33.05904297 118.01775391 33.05904297 118 34 C118.99 33.95359375 119.98 33.9071875 121 33.859375 C135.45312744 33.37998275 135.45312744 33.37998275 141 38 C144.9048899 42.49062338 145 43.7651602 145 50 C96.82 50 48.64 50 -1 50 C-2.32 45.71 -3.64 41.42 -5 37 C-9.31407036 30.82495811 -13.55827773 26.78197868 -21 25 C-30.52758202 23.99405384 -37.23354908 24.82441295 -44.75 30.875 C-50.72903274 36.34688264 -51.52726329 40.75754429 -54 49 C-63.57 49 -73.14 49 -83 49 C-83 33.52696388 -79.04176933 21.90478848 -68.59765625 10.33984375 C-61.82519596 3.74639122 -54.64479698 -0.3557263 -46 -4 C-45.10667969 -4.3815625 -44.21335938 -4.763125 -43.29296875 -5.15625 C-29.22778348 -8.76014089 -12.62659439 -7.24522675 0 0 Z " fill="#FEE077" transform="translate(180,147)"/>
<path d="M0 0 C62.37 0 124.74 0 189 0 C189 9.9 189 19.8 189 30 C126.63 30 64.26 30 0 30 C0 20.1 0 10.2 0 0 Z " fill="#D5D3EA" transform="translate(255,422)"/>
<path d="M0 0 C1.28307541 -0.00137466 2.56615082 -0.00274933 3.8881073 -0.00416565 C5.3128817 -0.00062649 6.73765587 0.00300832 8.16242981 0.00672913 C9.6603902 0.00701115 11.15835073 0.00685296 12.65631104 0.00628662 C16.72626359 0.00599924 20.79618678 0.01188637 24.8661325 0.01886058 C29.11824251 0.02510401 33.37035316 0.0256987 37.62246704 0.02688599 C45.6759646 0.02999637 53.72944862 0.03820584 61.78294021 0.04823548 C70.95091088 0.05940567 80.11888219 0.06490935 89.28685796 0.06993091 C108.14749076 0.08038868 127.00810499 0.09873055 145.86872864 0.12025452 C145.86872864 10.02025452 145.86872864 19.92025452 145.86872864 30.12025452 C126.15401147 30.1879824 106.43938854 30.24324265 86.72458458 30.27569103 C77.57060455 30.29115802 68.41670194 30.31224433 59.26277161 30.34657288 C51.28393681 30.37648038 43.30515809 30.39583075 35.32626879 30.40252 C31.10173832 30.40642997 26.87736829 30.41561543 22.65288925 30.43744469 C18.67533121 30.45783119 14.69799946 30.46408396 10.72039413 30.45957756 C9.26192494 30.4604018 7.80344806 30.46635467 6.34502411 30.47787094 C4.35032653 30.49284711 2.35550711 30.48740892 0.36076355 30.48101807 C-1.31229072 30.48516613 -1.31229072 30.48516613 -3.01914406 30.489398 C-7.2533401 29.98716087 -10.61486553 28.50338953 -13.77580261 25.62025452 C-17.6148464 20.68984376 -18.66157127 17.37779346 -18.13127136 11.12025452 C-13.90961078 3.14600675 -8.84438678 -0.00729133 0 0 Z " fill="#E7E2EE" transform="translate(109.13127136230469,421.87974548339844)"/>
<path d="M0 0 C16.4802641 -0.20054405 16.4802641 -0.20054405 23.5234375 -0.24414062 C28.32319897 -0.27399183 33.12248201 -0.30924494 37.921875 -0.37719727 C41.79281722 -0.43165901 45.6632462 -0.46144991 49.53454208 -0.47438622 C51.00894116 -0.48360094 52.48331319 -0.5015958 53.95749283 -0.52865028 C66.9622751 -0.7577521 66.9622751 -0.7577521 70.83691406 2.32568359 C76.93468876 9.86462536 76.47004524 18.09015976 76.39111328 27.31811523 C76.37501077 29.56100048 76.39102658 31.80209096 76.41015625 34.04492188 C76.40817401 35.48958725 76.40433072 36.93425153 76.3984375 38.37890625 C76.39505371 39.6738501 76.39166992 40.96879395 76.38818359 42.30297852 C75.6888569 48.9632956 73.23638474 53.65763217 68 58 C64.58661621 59.2103752 61.26621732 59.12060279 57.67089844 59.11352539 C56.38987244 59.11344986 55.10884644 59.11337433 53.78900146 59.11329651 C52.39579225 59.10819026 51.00258343 59.10297427 49.609375 59.09765625 C48.18019663 59.09579032 46.75101762 59.09436724 45.32183838 59.09336853 C41.56699852 59.08955715 37.81219757 59.07973867 34.05737305 59.06866455 C29.54858199 59.05661853 25.0397779 59.05204162 20.53097534 59.04621124 C13.68728987 59.03652615 6.8436897 59.01735998 0 59 C0 39.53 0 20.06 0 0 Z " fill="#6F4242" transform="translate(401,75)"/>
<path d="M0 0 C16.4802641 -0.20054405 16.4802641 -0.20054405 23.5234375 -0.24414062 C28.32319897 -0.27399183 33.12248201 -0.30924494 37.921875 -0.37719727 C41.79281722 -0.43165901 45.6632462 -0.46144991 49.53454208 -0.47438622 C51.00894116 -0.48360094 52.48331319 -0.5015958 53.95749283 -0.52865028 C66.9622751 -0.7577521 66.9622751 -0.7577521 70.83691406 2.32568359 C76.93468876 9.86462536 76.47004524 18.09015976 76.39111328 27.31811523 C76.37501077 29.56100048 76.39102658 31.80209096 76.41015625 34.04492188 C76.40817401 35.48958725 76.40433072 36.93425153 76.3984375 38.37890625 C76.39505371 39.6738501 76.39166992 40.96879395 76.38818359 42.30297852 C75.6888569 48.9632956 73.23638474 53.65763217 68 58 C64.58661621 59.2103752 61.26621732 59.12060279 57.67089844 59.11352539 C56.38987244 59.11344986 55.10884644 59.11337433 53.78900146 59.11329651 C52.39579225 59.10819026 51.00258343 59.10297427 49.609375 59.09765625 C48.18019663 59.09579032 46.75101762 59.09436724 45.32183838 59.09336853 C41.56699852 59.08955715 37.81219757 59.07973867 34.05737305 59.06866455 C29.54858199 59.05661853 25.0397779 59.05204162 20.53097534 59.04621124 C13.68728987 59.03652615 6.8436897 59.01735998 0 59 C0 39.53 0 20.06 0 0 Z " fill="#6F4242" transform="translate(401,257)"/>
<path d="M0 0 C1.31786499 0.00906372 1.31786499 0.00906372 2.66235352 0.01831055 C5.92382232 0.04954905 9.18461781 0.13331827 12.4453125 0.2109375 C23.3971875 0.3965625 23.3971875 0.3965625 34.5703125 0.5859375 C34.5703125 20.0559375 34.5703125 39.5259375 34.5703125 59.5859375 C-8.17226525 63.05155191 -8.17226525 63.05155191 -19.4296875 53.78515625 C-22.0197243 51.46849505 -24.40713582 49.03299214 -26.7421875 46.4609375 C-27.30821686 45.84076752 -27.87424622 45.22059753 -28.45742798 44.58163452 C-37.13256887 34.79958082 -37.13256887 34.79958082 -37.86010742 29.37915039 C-37.40130906 26.40177541 -37.01015616 25.43655535 -34.8671875 23.40234375 C-34.3213501 22.87068604 -33.7755127 22.33902832 -33.21313477 21.79125977 C-32.62459717 21.24912842 -32.03605957 20.70699707 -31.4296875 20.1484375 C-30.53817993 19.29366821 -30.53817993 19.29366821 -29.62866211 18.42163086 C-25.95340389 14.92216975 -22.20852555 11.49452882 -18.30859375 8.24609375 C-16.19999669 6.47734833 -16.19999669 6.47734833 -13.96411133 3.51879883 C-9.82113307 -0.61138439 -5.57383796 -0.1818334 0 0 Z " fill="#6F4242" transform="translate(335.4296875,74.4140625)"/>
<path d="M0 0 C7.21875 0.20625 14.4375 0.4125 21.875 0.625 C21.875 20.095 21.875 39.565 21.875 59.625 C-20.8345424 63.08793587 -20.8345424 63.08793587 -32.16015625 53.859375 C-34.7591412 51.55269682 -37.15422112 49.12474208 -39.5 46.5625 C-40.35544907 45.63865005 -40.35544907 45.63865005 -41.22817993 44.69613647 C-42.83806795 42.90643796 -44.38244008 41.08450748 -45.8984375 39.21484375 C-46.35134659 38.66024475 -46.80425568 38.10564575 -47.27088928 37.53424072 C-49.51500321 34.48289465 -50.12617674 32.75660259 -50.09204102 28.93896484 C-49.11018603 25.57423383 -48.46062195 24.2787176 -45.87890625 22.01171875 C-45.20537109 21.40263672 -44.53183594 20.79355469 -43.83789062 20.16601562 C-43.12826172 19.55435547 -42.41863281 18.94269531 -41.6875 18.3125 C-40.31193423 17.08933694 -38.93826628 15.86403661 -37.56640625 14.63671875 C-36.83292969 14.01120117 -36.09945313 13.38568359 -35.34375 12.74121094 C-33.02491277 10.65626263 -33.02491277 10.65626263 -31.171875 7.93847656 C-23.03911322 -2.54713632 -12.09780071 -0.48771012 0 0 Z " fill="#6F4242" transform="translate(348.125,256.375)"/>
<path d="M0 0 C5.4544467 3.86956973 10.09881182 9.01305168 12.0703125 15.46875 C13.00266909 24.92550969 12.26697387 32.68207222 6.3203125 40.21875 C1.66699724 45.28878006 -3.74629415 48.03936945 -10.59375 48.7421875 C-19.01959637 49.0312007 -25.37410502 47.52350735 -31.77734375 41.82421875 C-38.1011388 34.94107082 -39.46981438 28.74819082 -39.20703125 19.55078125 C-38.51039903 11.80933309 -34.3075919 6.72793686 -28.9296875 1.46875 C-20.87373362 -4.3390307 -8.74253315 -4.51643779 0 0 Z " fill="#B08361" transform="translate(165.9296875,173.53125)"/>
<path d="M0 0 C1.3600264 -0.00006042 1.3600264 -0.00006042 2.74752808 -0.00012207 C4.65190618 0.00520882 6.55628556 0.02268661 8.46044922 0.05175781 C11.36624657 0.09373641 14.26973058 0.09280876 17.17578125 0.0859375 C19.03387018 0.0964276 20.89194724 0.10936473 22.75 0.125 C24.04395187 0.12530212 24.04395187 0.12530212 25.36404419 0.12561035 C31.26190077 0.24081568 35.37517626 1.36975157 40.140625 5.06640625 C43.29603734 8.46390049 44.66923582 10.96196738 44.8671875 15.65625 C44.52220224 21.19284266 42.23273765 24.28471182 38.6796875 28.40625 C35.92822821 30.67919463 33.10858941 30.73541085 29.69824219 30.80249023 C28.78008728 30.82178085 27.86193237 30.84107147 26.91595459 30.86094666 C22.71728619 30.9188477 18.51878567 30.96796409 14.31982422 30.9987793 C12.10840233 31.0203581 9.89706583 31.05445927 7.68603516 31.10131836 C4.49082456 31.16839248 1.29737827 31.19579079 -1.8984375 31.21484375 C-3.3722287 31.25658974 -3.3722287 31.25658974 -4.87579346 31.29917908 C-10.8872861 31.28125947 -14.13025995 30.3623936 -18.46795654 26.11634827 C-21.69014453 22.31274693 -22.229987 18.5282963 -22.0625 13.578125 C-21.42861155 9.44972331 -19.28141033 6.83722976 -16.10671997 4.24621582 C-10.68517199 0.55287628 -6.47731266 -0.12368852 0 0 Z " fill="#6F4242" transform="translate(375.7578125,180.40625)"/>
<path d="M0 0 C9.57 0 19.14 0 29 0 C29 19.47 29 38.94 29 59 C19.43 59 9.86 59 0 59 C0 39.53 0 20.06 0 0 Z " fill="#FEC077" transform="translate(371,257)"/>
<path d="M0 0 C9.57 0 19.14 0 29 0 C29 19.47 29 38.94 29 59 C19.43 59 9.86 59 0 59 C0 39.53 0 20.06 0 0 Z " fill="#FEC077" transform="translate(371,75)"/>
</svg>
