<?xml version="1.0" encoding="UTF-8"?>
<svg version="1.1" xmlns="http://www.w3.org/2000/svg" width="512" height="512">
<path d="M0 0 C1.39029168 -0.00417948 2.78057995 -0.00966036 4.17086196 -0.01631981 C7.9676824 -0.03071161 11.76428462 -0.02654955 15.5611167 -0.019153 C19.66472732 -0.01440828 23.76829161 -0.02694236 27.87188721 -0.03717041 C35.9003918 -0.05433562 43.92881805 -0.05520352 51.95733622 -0.04995751 C58.48165415 -0.04591196 65.00594897 -0.04736392 71.53026581 -0.05270576 C72.92441702 -0.0538284 72.92441702 -0.0538284 74.3467329 -0.05497371 C76.23495518 -0.05650521 78.12317745 -0.05804356 80.01139972 -0.05958868 C97.70246367 -0.07330433 115.39348336 -0.06788158 133.0845463 -0.05640347 C149.27208332 -0.04646201 165.45950619 -0.05942916 181.64702561 -0.08333766 C198.27438553 -0.10771069 214.90169224 -0.11734157 231.52906966 -0.11068493 C240.86188438 -0.10719001 250.1946112 -0.10944332 259.52741241 -0.12693596 C267.46804049 -0.14163506 275.4085187 -0.14232296 283.34914377 -0.12486505 C287.40058359 -0.11633559 291.45175541 -0.11425294 295.50318146 -0.1295166 C299.21151994 -0.14331504 302.91935957 -0.13866374 306.62766883 -0.11927737 C308.60509897 -0.11371328 310.5825542 -0.12782876 312.55993676 -0.14263147 C323.22418008 -0.05364834 323.22418008 -0.05364834 328.08197021 4.38768005 C328.8288271 5.05148178 329.57568398 5.71528351 330.34517288 6.39920044 C331.41700884 7.46990532 331.41700884 7.46990532 332.51049805 8.5622406 C333.34044281 9.38654572 334.17038757 10.21085083 335.02548218 11.06013489 C335.91714081 11.95584198 336.80879944 12.85154907 337.72747803 13.7743988 C338.69021029 14.73441773 339.65336679 15.69401137 340.61691284 16.6532135 C343.22046342 19.24768108 345.81768977 21.84839312 348.41352177 24.4505806 C351.13486366 27.17700077 353.86109864 29.89852121 356.58654785 32.62083435 C361.15958846 37.19024188 365.72840807 41.76383804 370.29486084 46.33982849 C375.57278478 51.62864873 380.85789257 56.91020801 386.14676404 62.18807888 C390.69239219 66.72463095 395.23411114 71.26506901 399.77258563 75.80877781 C402.48122698 78.5205354 405.19119733 81.23092774 407.90470123 83.93782043 C410.45373082 86.48107208 412.99781684 89.02916775 415.53817368 91.58108139 C416.91564464 92.96245659 418.29804119 94.33891462 419.68057251 95.71522522 C420.49923798 96.53953033 421.31790344 97.36383545 422.16137695 98.21311951 C422.87442616 98.92692276 423.58747536 99.64072601 424.32213211 100.37615967 C427.64949911 104.17938824 428.33224383 107.06565827 428.33923912 112.09378815 C428.34568801 113.26477287 428.35213691 114.43575759 428.35878122 115.6422267 C428.35413541 117.57350943 428.35413541 117.57350943 428.34939575 119.54380798 C428.35313159 120.92464335 428.35773285 122.30547659 428.3631264 123.68630648 C428.37538091 127.48505471 428.37509303 131.28371503 428.37273765 135.08247852 C428.37233008 139.17812272 428.38336317 143.2737385 428.39285278 147.36936951 C428.40947914 155.39668232 428.41496314 163.42396577 428.41607754 171.45129436 C428.41702761 177.97856085 428.42113586 184.50581764 428.42747879 191.03308105 C428.44509867 209.54207497 428.45431695 228.05104568 428.45281784 246.56004804 C428.45273793 247.55826426 428.45265802 248.55648048 428.45257568 249.58494568 C428.45249392 250.58438251 428.45241216 251.58381934 428.45232792 252.61354214 C428.45151567 268.79740336 428.47063594 284.98117136 428.49885242 301.16500562 C428.52760103 317.78541923 428.5413915 334.40578742 428.53966486 351.02622652 C428.53900146 360.35597447 428.54447159 369.68562481 428.56602097 379.01535034 C428.58425918 386.96253225 428.58855876 394.90957235 428.57500212 402.85676616 C428.56848465 406.90891306 428.56831057 410.96078812 428.58570862 415.01290894 C428.60149988 418.7291923 428.5985147 422.44498967 428.58114035 426.16126162 C428.57664553 428.12858447 428.59168055 430.09592275 428.60761964 432.06318617 C428.49499566 446.65728069 423.63490084 457.5044211 413.76947021 468.13768005 C402.04211619 479.23678297 389.12161021 480.83872665 373.62277222 480.77536011 C371.95627099 480.77953748 370.2897726 480.78501721 368.62327945 480.79167992 C364.06274738 480.80610032 359.50239656 480.80190047 354.94185472 480.79451311 C350.01603909 480.7897753 345.09026233 480.80229672 340.16445923 480.81253052 C330.52169249 480.82971186 320.87899093 480.83055989 311.23621286 480.82531761 C303.39711162 480.82127342 295.55802962 480.82272244 287.71892929 480.82806587 C286.60250292 480.82881429 285.48607656 480.82956272 284.33581909 480.83033382 C282.0676752 480.83186532 279.79953131 480.83340367 277.53138743 480.83494879 C256.2691694 480.84867144 235.00698818 480.84323779 213.74477099 480.83176357 C194.30216532 480.82183161 174.85965483 480.83477167 155.41706385 480.85869776 C135.44258022 480.8830928 115.46814091 480.89269562 95.49364269 480.88604504 C84.28381067 480.8825537 73.07405185 480.88477928 61.86423111 480.90229607 C52.32153139 480.91702307 42.7789564 480.91764691 33.23625912 480.90022516 C28.36993455 480.89171693 23.50383275 480.88956136 18.63751984 480.90487671 C14.17762598 480.91873891 9.71814542 480.91394096 5.25827537 480.89463747 C3.65002807 480.89088186 2.04174753 480.89378673 0.43352987 480.90424912 C-15.70817001 481.00174389 -27.66217084 477.21409513 -39.66802979 466.07518005 C-50.7671327 454.34782603 -52.36907638 441.42732005 -52.30570984 425.92848206 C-52.30988721 424.26198082 -52.31536694 422.59548244 -52.32202965 420.92898929 C-52.33645005 416.36845722 -52.3322502 411.8081064 -52.32486284 407.24756455 C-52.32012503 402.32174893 -52.33264645 397.39597216 -52.34288025 392.47016907 C-52.3600616 382.82740233 -52.36090962 373.18470077 -52.35566735 363.5419227 C-52.35162315 355.70282146 -52.35307217 347.86373946 -52.3584156 340.02463913 C-52.35916403 338.90821276 -52.35991245 337.7917864 -52.36068355 336.64152893 C-52.36221505 334.37338504 -52.3637534 332.10524115 -52.36529852 329.83709727 C-52.37902118 308.57487924 -52.37358752 287.31269802 -52.3621133 266.05048083 C-52.35218134 246.60787516 -52.3651214 227.16536467 -52.3890475 207.72277369 C-52.41344253 187.74829006 -52.42304536 167.77385075 -52.41639477 147.79935253 C-52.41290343 136.58952051 -52.41512901 125.37976169 -52.4326458 114.16994095 C-52.4473728 104.62724123 -52.44799664 95.08466624 -52.43057489 85.54196896 C-52.42206666 80.67564439 -52.4199111 75.80954259 -52.43522644 70.94322968 C-52.44908864 66.48333582 -52.4442907 62.02385526 -52.4249872 57.56398521 C-52.42123159 55.95573791 -52.42413646 54.34745737 -52.43459886 52.73923971 C-52.53209362 36.59753983 -48.74444487 24.643539 -37.60552979 12.63768005 C-26.67307387 2.29089142 -14.60203706 -0.06887711 0 0 Z " fill="#45ACE4" transform="translate(67.91802978515625,15.612319946289063)"/>
<path d="M0 0 C5.30186559 -0.09918586 10.60318618 -0.17161755 15.90576172 -0.21972656 C17.70794081 -0.23979033 19.51005521 -0.26704813 21.31201172 -0.30175781 C23.90869136 -0.35050829 26.50450729 -0.37302082 29.1015625 -0.390625 C30.30191635 -0.42159271 30.30191635 -0.42159271 31.52651978 -0.45318604 C40.41252654 -0.45671695 44.91347289 4.68339114 50.94351196 10.67245483 C52.28099991 12.01601547 52.28099991 12.01601547 53.64550781 13.38671875 C54.60824007 14.34673767 55.57139657 15.30633131 56.53494263 16.26553345 C59.13849321 18.86000103 61.73571955 21.46071306 64.33155155 24.06290054 C67.05289344 26.78932072 69.77912843 29.51084116 72.50457764 32.2331543 C77.07761825 36.80256183 81.64643785 41.37615799 86.21289062 45.95214844 C91.49081457 51.24096868 96.77592236 56.52252796 102.06479383 61.80039883 C106.61042198 66.33695089 111.15214092 70.87738896 115.69061542 75.42109776 C118.39925676 78.13285535 121.10922711 80.84324768 123.82273102 83.55014038 C126.3717606 86.09339202 128.91584663 88.64148769 131.45620346 91.19340134 C132.83367443 92.57477654 134.21607098 93.95123457 135.59860229 95.32754517 C136.41726776 96.15185028 137.23593323 96.9761554 138.07940674 97.82543945 C138.79245594 98.53924271 139.50550514 99.25304596 140.2401619 99.98847961 C143.5675289 103.79170819 144.25027362 106.67797822 144.25726891 111.70610809 C144.2637178 112.87709281 144.27016669 114.04807754 144.276811 115.25454664 C144.2721652 117.18582938 144.2721652 117.18582938 144.26742554 119.15612793 C144.27116138 120.53696329 144.27576263 121.91779654 144.28115618 123.29862642 C144.29341069 127.09737465 144.29312282 130.89603497 144.29076743 134.69479847 C144.29035986 138.79044266 144.30139296 142.88605844 144.31088257 146.98168945 C144.32750893 155.00900227 144.33299293 163.03628572 144.33410732 171.06361431 C144.33505739 177.59088079 144.33916564 184.11813758 144.34550858 190.645401 C144.36312846 209.15439492 144.37234673 227.66336563 144.37084763 246.17236799 C144.37076772 247.17058421 144.3706878 248.16880043 144.37060547 249.19726562 C144.37052371 250.19670246 144.37044195 251.19613929 144.37035771 252.22586209 C144.36954546 268.4097233 144.38866573 284.5934913 144.4168822 300.77732557 C144.44563081 317.39773918 144.45942128 334.01810737 144.45769465 350.63854647 C144.45703124 359.96829442 144.46250138 369.29794475 144.48405075 378.62767029 C144.50228896 386.5748522 144.50658854 394.5218923 144.4930319 402.46908611 C144.48651444 406.52123301 144.48634036 410.57310806 144.5037384 414.62522888 C144.51952966 418.34151225 144.51654448 422.05730962 144.49917014 425.77358156 C144.49467532 427.74090441 144.50971033 429.7082427 144.52564943 431.67550611 C144.41302545 446.26960064 139.55293063 457.11674104 129.6875 467.75 C120.10549404 476.81868421 108.83779875 480.52514754 95.8359375 480.29296875 C94.91785309 480.28872391 93.99976868 480.28447906 93.05386353 480.28010559 C90.16059322 480.26349497 87.2680549 480.22587775 84.375 480.1875 C82.39714557 480.17243032 80.41928008 480.15874595 78.44140625 480.14648438 C73.62732798 480.11364953 68.81378749 480.06199238 64 480 C63.99853344 479.22254047 63.99706688 478.44508095 63.99555588 477.64406204 C63.95843226 458.68779109 63.89934411 439.73170358 63.81609726 420.77557755 C63.77636329 411.60835748 63.74394222 402.44122256 63.72900391 393.27392578 C63.71595806 385.27955402 63.6889189 377.28537005 63.64538693 369.29110408 C63.62283781 365.06192648 63.60708536 360.83297992 63.60811615 356.60373688 C63.60886666 352.61451512 63.59076067 348.62580282 63.55883217 344.63671303 C63.55038611 343.18080027 63.54854683 341.72483002 63.55419731 340.26890373 C63.59892832 326.9598368 61.04679407 316.67747674 53 306 C52.4225 305.13375 51.845 304.2675 51.25 303.375 C43.59463188 295.29433365 32.73368349 289.48650081 21.51067638 288.8613348 C20.63036408 288.85488225 19.75005178 288.8484297 18.84306335 288.84178162 C17.3213567 288.82712058 17.3213567 288.82712058 15.7689085 288.81216335 C14.66269555 288.8063931 13.5564826 288.80062284 12.41674805 288.79467773 C11.22668309 288.78464501 10.03661814 288.77461229 8.81049061 288.76427555 C4.96091975 288.73291068 1.11133858 288.70812754 -2.73828125 288.68359375 C-5.11601089 288.66518846 -7.49373723 288.64635168 -9.87145996 288.6270752 C-18.68510091 288.55865137 -27.49880512 288.49858332 -36.3125 288.4375 C-56.009375 288.293125 -75.70625 288.14875 -96 288 C-96 245.76 -96 203.52 -96 160 C-61.125 159.75 -61.125 159.75 -50.16845703 159.70214844 C-46.88874935 159.66887292 -46.88874935 159.66887292 -43.60910034 159.63043213 C-42.16376047 159.61594829 -40.71833102 159.60905159 -39.2729187 159.60845947 C-27.5037361 159.59540224 -17.71701678 158.44916347 -8.7578125 150.0703125 C-3.79507984 144.22531626 -0.89133765 137.13866441 -0.84178162 129.51411438 C-0.8319928 128.37407959 -0.82220398 127.2340448 -0.81211853 126.0594635 C-0.80636307 124.80789963 -0.8006076 123.55633575 -0.79467773 122.2668457 C-0.78477814 120.9496756 -0.77487854 119.63250549 -0.76467896 118.27542114 C-0.73763272 114.6620971 -0.71662164 111.04876 -0.69667697 107.43539071 C-0.67481569 103.65971765 -0.64742769 99.88408482 -0.62062073 96.10844421 C-0.57069577 88.95808234 -0.52575621 81.80769812 -0.48259836 74.65729254 C-0.43322431 66.51708531 -0.3783068 58.37691844 -0.32291877 50.23675025 C-0.20910174 33.49120404 -0.10226209 16.74562084 0 0 Z " fill="#3C96D1" transform="translate(352,16)"/>
<path d="M0 0 C0.97448648 -0.00453111 1.94897296 -0.00906223 2.95298934 -0.01373065 C6.19761082 -0.02632652 9.44206341 -0.02475738 12.68670654 -0.02310181 C15.02159337 -0.02909005 17.35647821 -0.03589628 19.69136047 -0.04345703 C26.02002159 -0.06109397 32.34862858 -0.06581144 38.6773119 -0.0670886 C42.63521955 -0.06851206 46.59311352 -0.07278536 50.55101776 -0.07808304 C63.65766749 -0.09562218 76.76428326 -0.10492424 89.87094477 -0.10342209 C90.57633268 -0.10334218 91.28172059 -0.10326227 92.00848389 -0.10317993 C93.06786996 -0.10305729 93.06786996 -0.10305729 94.14865777 -0.10293217 C105.58834497 -0.10211968 117.02790038 -0.12125194 128.46754947 -0.14945666 C140.23698569 -0.17824362 152.00635775 -0.19199377 163.77583003 -0.19026911 C170.37413487 -0.18960722 176.97231827 -0.19540495 183.57059479 -0.21662521 C189.77919645 -0.23604794 195.98750714 -0.23610421 202.19611931 -0.22159195 C204.46760167 -0.21950779 206.73910244 -0.22418115 209.01055336 -0.23631287 C224.86765748 -0.31548274 237.88669786 0.21581276 250.93182373 10.26742554 C251.81869873 10.88617554 252.70557373 11.50492554 253.61932373 12.14242554 C261.63811387 19.5110435 265.98395433 28.94988263 268.93182373 39.26742554 C268.93182373 89.75742554 268.93182373 140.24742554 268.93182373 192.26742554 C163.33182373 192.26742554 57.73182373 192.26742554 -51.06817627 192.26742554 C-51.06817627 28.57069258 -51.06817627 28.57069258 -37.50567627 14.01742554 C-26.59334207 3.69672391 -14.65379395 -0.05071868 0 0 Z " fill="#F1C761" transform="translate(147.06817626953125,303.7325744628906)"/>
<path d="M0 0 C63.36 0 126.72 0 192 0 C192.0825 22.06875 192.165 44.1375 192.25 66.875 C192.28641602 73.83190918 192.32283203 80.78881836 192.36035156 87.95654297 C192.37841797 96.48071289 192.37841797 96.48071289 192.3817749 100.47683716 C192.3854873 103.2556955 192.40041954 106.03424524 192.42230225 108.8130188 C192.44991703 112.3672418 192.45793221 115.92102171 192.4522891 119.47534204 C192.45401987 121.38216945 192.47538168 123.28894887 192.497715 125.19564629 C192.4455926 136.04873248 189.78635256 144.07626324 182.29296875 152.01953125 C176.29474332 157.20028132 169.19202225 160.11454956 161.30892944 160.14717102 C159.5300383 160.15790398 159.5300383 160.15790398 157.71520996 160.16885376 C155.7608905 160.17288712 155.7608905 160.17288712 153.76708984 160.17700195 C152.38225128 160.183268 150.9974144 160.18991493 149.61257935 160.19691467 C145.06204395 160.21794637 140.51150826 160.22831842 135.9609375 160.23828125 C134.39261482 160.24232959 132.82429232 160.24644653 131.25597 160.25063133 C123.88497885 160.26968359 116.5139977 160.28391273 109.14298666 160.2922433 C100.64527286 160.30200655 92.14782018 160.32830188 83.65019834 160.36874419 C77.07595173 160.39895434 70.50177973 160.41371694 63.92746508 160.41702431 C60.00409076 160.41936986 56.08099538 160.4282648 52.15769577 160.45348549 C48.46235988 160.47685635 44.76748476 160.48096369 41.07209396 160.47072411 C39.08067616 160.46999678 37.08928129 160.48902595 35.09796143 160.50878906 C27.81454779 160.46674322 22.34191945 159.66829051 16 156 C14.80310547 155.33097656 14.80310547 155.33097656 13.58203125 154.6484375 C6.40084278 149.4805182 2.46301849 142.40687033 0 134 C-0.24609566 131.16898537 -0.24609566 131.16898537 -0.24050903 128.1913147 C-0.24326403 127.05791468 -0.24601902 125.92451466 -0.2488575 124.75676918 C-0.23806317 122.90611131 -0.23806317 122.90611131 -0.22705078 121.01806641 C-0.22643757 119.67568664 -0.22670602 118.33330622 -0.2277813 116.99092674 C-0.22823149 113.40689527 -0.2166678 109.82299825 -0.20256042 106.23899841 C-0.19114251 102.87181982 -0.19063266 99.50464681 -0.18920898 96.13745117 C-0.17872819 86.29994975 -0.15080575 76.46247316 -0.125 66.625 C-0.08375 44.63875 -0.0425 22.6525 0 0 Z " fill="#E6E3E0" transform="translate(160,16)"/>
<path d="M0 0 C1.77095236 -0.0003616 1.77095236 -0.0003616 3.57768154 -0.00073051 C7.3733994 0.00075409 11.1689172 0.01594785 14.96459961 0.03173828 C17.3183991 0.03468136 19.67219991 0.03672017 22.02600098 0.0378418 C30.72300182 0.04829849 39.41997459 0.07622103 48.11694336 0.10205078 C77.29100586 0.16392578 77.29100586 0.16392578 107.05444336 0.22705078 C107.05444336 63.58705078 107.05444336 126.94705078 107.05444336 192.22705078 C54.25444336 192.22705078 1.45444336 192.22705078 -52.94555664 192.22705078 C-53.00743164 167.53892578 -53.06930664 142.85080078 -53.13305664 117.41455078 C-53.16036865 109.63143311 -53.18768066 101.84831543 -53.21582031 93.8293457 C-53.22937012 84.29406738 -53.22937012 84.29406738 -53.23188782 79.82417297 C-53.23467245 76.71542379 -53.24587349 73.60682973 -53.26228333 70.49812317 C-53.28298979 66.52226711 -53.28900643 62.54663387 -53.28477347 58.5707289 C-53.2856575 57.11815059 -53.29152966 55.66556381 -53.30320203 54.21303213 C-53.42262552 38.61650073 -50.23794382 25.62490862 -39.38305664 13.97705078 C-27.74951602 2.97424429 -15.49165437 -0.10298959 0 0 Z " fill="#FED666" transform="translate(148.945556640625,303.77294921875)"/>
<path d="M0 0 C31.68 0 63.36 0 96 0 C96 52.8 96 105.6 96 160 C18.10638298 160 18.10638298 160 8 150 C3.10202384 143.33180186 -0.25625842 136.58573909 -0.24050903 128.1913147 C-0.24463303 126.48769775 -0.24463303 126.48769775 -0.24884033 124.74966431 C-0.24164978 123.518237 -0.23445923 122.28680969 -0.22705078 121.01806641 C-0.22734283 119.71021179 -0.22763489 118.40235718 -0.22793579 117.05487061 C-0.22850815 113.48090429 -0.21677291 109.90707301 -0.20278788 106.33313799 C-0.19026093 102.5935488 -0.18910847 98.8539563 -0.18673706 95.11434937 C-0.18052806 88.03840915 -0.16412511 80.96253096 -0.14403808 73.88661802 C-0.11747451 64.32103016 -0.10670175 54.75542526 -0.09503365 45.1898098 C-0.07624408 30.12649344 -0.03639457 15.06330793 0 0 Z " fill="#F1EEEC" transform="translate(160,16)"/>
</svg>
